<svg width="145" height="145" viewBox="0 0 145 145" fill="none" xmlns="http://www.w3.org/2000/svg">
<g clip-path="url(#clip0_18_8)">
<path d="M72.7477 112.971C72.1485 112.974 71.5548 112.857 71.0013 112.627C70.4477 112.396 69.9452 112.058 69.5233 111.631L31.8289 73.7779C31.4048 73.3539 31.0686 72.8497 30.8398 72.2943C30.6111 71.739 30.4943 71.1437 30.4962 70.5427C30.4962 69.3173 30.9691 68.1685 31.8289 67.3052L36.3455 62.7702C38.058 61.0435 41.077 61.0411 42.7919 62.7726L80.4886 100.628C81.3414 101.487 81.8203 102.651 81.8203 103.864C81.8203 105.077 81.3414 106.241 80.4886 107.101L75.9697 111.636C75.5474 112.061 75.0451 112.398 74.4921 112.628C73.939 112.857 73.3461 112.974 72.7477 112.971ZM36.3407 70.5403L72.7477 107.103L75.9769 103.861L39.5699 67.3004L36.3407 70.5403Z" fill="#1C3B78"/>
<path d="M9.86713 153.001C8.64664 153.001 7.50258 152.526 6.64274 151.663L-7.66641 137.295C-8.52037 136.436 -9 135.272 -9 134.059C-9 132.845 -8.52037 131.681 -7.66641 130.822L41.1223 81.8419C42.8395 80.1152 45.8466 80.1152 47.5687 81.8419L61.8778 96.2094C62.7306 97.0688 63.2094 98.2326 63.2094 99.4457C63.2094 100.659 62.7306 101.823 61.8778 102.682L13.0891 151.665C12.2269 152.528 11.0852 153.001 9.86713 153.001ZM-3.15464 134.058L9.86713 147.132L57.366 99.4445L44.3443 86.3697L-3.15464 134.058Z" fill="#1C3B78"/>
<path d="M60.3871 102.349C60.036 102.349 59.6778 102.282 59.3338 102.135L36.0226 92.3461C35.368 92.0553 34.8529 91.5185 34.5881 90.8507C34.3233 90.183 34.3297 89.4376 34.6061 88.7746C34.8825 88.1116 35.4068 87.5838 36.0664 87.3046C36.726 87.0253 37.4683 87.0169 38.134 87.2811L61.4452 97.0705C62.0279 97.3157 62.508 97.7559 62.8041 98.3164C63.1001 98.8768 63.1938 99.5229 63.0691 100.145C62.9444 100.767 62.6091 101.326 62.1202 101.728C61.6313 102.13 61.0189 102.349 60.3871 102.349Z" fill="#1C3B78"/>
<path d="M53.9387 109.484C52.8687 109.484 51.8512 108.851 51.4141 107.799L41.6669 84.3923C41.5283 84.0597 41.4562 83.703 41.4549 83.3424C41.4536 82.9819 41.523 82.6247 41.6592 82.2911C41.7953 81.9575 41.9956 81.6541 42.2486 81.3982C42.5015 81.1423 42.8022 80.939 43.1334 80.7998C43.4646 80.6606 43.8199 80.5883 44.179 80.5869C44.538 80.5856 44.8938 80.6553 45.2261 80.792C45.5583 80.9288 45.8605 81.1299 46.1153 81.3838C46.3702 81.6378 46.5727 81.9397 46.7113 82.2723L56.4585 105.679C56.633 106.096 56.702 106.55 56.6595 107C56.617 107.45 56.4642 107.883 56.2148 108.26C55.9654 108.637 55.627 108.945 55.2299 109.159C54.8328 109.373 54.3893 109.485 53.9387 109.484Z" fill="#1C3B78"/>
<path d="M51.8846 110.887C51.5335 110.887 51.1752 110.82 50.8313 110.674L27.5201 100.884C26.8655 100.593 26.3504 100.057 26.0856 99.3888C25.8208 98.7211 25.8272 97.9757 26.1036 97.3127C26.38 96.6496 26.9043 96.1219 27.5639 95.8426C28.2235 95.5634 28.9658 95.555 29.6315 95.8192L52.9427 105.609C53.5254 105.854 54.0055 106.294 54.3016 106.854C54.5976 107.415 54.6912 108.061 54.5666 108.683C54.4419 109.305 54.1066 109.864 53.6177 110.266C53.1288 110.668 52.5164 110.887 51.8846 110.887Z" fill="#1C3B78"/>
<path d="M45.4356 118.023C44.3656 118.023 43.3481 117.389 42.911 116.337L33.1638 92.9304C33.0252 92.5978 32.9531 92.2411 32.9518 91.8805C32.9505 91.52 33.0199 91.1628 33.1561 90.8292C33.2922 90.4956 33.4925 90.1922 33.7455 89.9363C33.9984 89.6804 34.2991 89.4771 34.6303 89.3379C35.2992 89.0568 36.052 89.054 36.723 89.3301C37.394 89.6062 37.9282 90.1387 38.2082 90.8104L47.9554 114.217C48.1299 114.634 48.1989 115.088 48.1564 115.538C48.1139 115.988 47.9611 116.421 47.7117 116.798C47.4623 117.175 47.1239 117.484 46.7268 117.697C46.3297 117.911 45.8861 118.023 45.4356 118.023Z" fill="#1C3B78"/>
<path d="M43.3816 119.42C43.0305 119.42 42.6722 119.353 42.3283 119.207L19.0171 109.417C18.3624 109.127 17.8474 108.59 17.5825 107.922C17.3177 107.254 17.3242 106.509 17.6006 105.846C17.8769 105.183 18.4012 104.655 19.0608 104.376C19.7204 104.097 20.4627 104.088 21.1285 104.352L44.4396 114.142C45.0223 114.387 45.5025 114.827 45.7985 115.388C46.0945 115.948 46.1882 116.594 46.0635 117.216C45.9389 117.838 45.6036 118.397 45.1147 118.799C44.6258 119.201 44.0134 119.42 43.3816 119.42Z" fill="#1C3B78"/>
<path d="M36.9302 126.561C35.8602 126.561 34.8427 125.928 34.4057 124.875L24.6584 101.468C24.3784 100.797 24.3757 100.041 24.6507 99.3673C24.9257 98.6935 25.456 98.1571 26.1249 97.876C26.7939 97.5949 27.5466 97.592 28.2176 97.8682C28.8886 98.1443 29.4228 98.6768 29.7028 99.3485L39.45 122.755C39.6245 123.172 39.6936 123.626 39.651 124.076C39.6085 124.526 39.4557 124.959 39.2063 125.336C38.9569 125.713 38.6186 126.022 38.2214 126.235C37.8243 126.449 37.3808 126.561 36.9302 126.561Z" fill="#1C3B78"/>
<path d="M34.8764 127.957C34.5253 127.957 34.1671 127.89 33.8231 127.743L10.5143 117.956C9.85968 117.666 9.34464 117.129 9.0798 116.461C8.81496 115.793 8.82143 115.048 9.09781 114.385C9.37419 113.722 9.89846 113.194 10.5581 112.915C11.2177 112.636 11.96 112.627 12.6257 112.891L35.9345 122.678C36.5172 122.924 36.9974 123.364 37.2934 123.924C37.5894 124.485 37.6831 125.131 37.5584 125.753C37.4337 126.375 37.0985 126.934 36.6095 127.336C36.1206 127.738 35.5082 127.957 34.8764 127.957Z" fill="#1C3B78"/>
<path d="M28.4278 135.099C27.3578 135.099 26.3403 134.465 25.9032 133.41L16.156 110.004C16.0175 109.671 15.9457 109.314 15.9445 108.954C15.9434 108.593 16.013 108.236 16.1494 107.902C16.2858 107.569 16.4863 107.265 16.7395 107.01C16.9926 106.754 17.2935 106.551 17.6249 106.412C17.9563 106.273 18.3117 106.2 18.6708 106.199C19.03 106.198 19.3858 106.268 19.718 106.405C20.0503 106.542 20.3524 106.743 20.6071 106.997C20.8619 107.252 21.0643 107.554 21.2028 107.886L30.95 131.293C31.1239 131.71 31.1924 132.164 31.1495 132.614C31.1066 133.065 30.9536 133.497 30.704 133.874C30.4544 134.25 30.116 134.559 29.7189 134.773C29.3218 134.987 28.8783 135.098 28.4278 135.099Z" fill="#1C3B78"/>
<path d="M26.3739 136.491C26.0228 136.491 25.6646 136.424 25.3206 136.278L2.01183 126.491C1.35718 126.2 0.842142 125.663 0.5773 124.995C0.312459 124.328 0.318922 123.582 0.595305 122.919C0.871688 122.256 1.39596 121.728 2.05555 121.449C2.71515 121.17 3.4575 121.161 4.12321 121.426L27.432 131.213C28.0147 131.458 28.4949 131.898 28.7909 132.458C29.0869 133.019 29.1806 133.665 29.0559 134.287C28.9312 134.909 28.5959 135.468 28.107 135.87C27.6181 136.272 27.0057 136.491 26.3739 136.491Z" fill="#1C3B78"/>
<path d="M19.925 143.634C18.855 143.634 17.8375 143.001 17.4005 141.945L7.65562 118.539C7.51714 118.206 7.44529 117.85 7.44417 117.489C7.44304 117.128 7.51266 116.771 7.64906 116.437C7.78546 116.104 7.98597 115.801 8.23912 115.545C8.49228 115.289 8.79314 115.086 9.12451 114.947C9.45589 114.808 9.8113 114.736 10.1704 114.734C10.5296 114.733 10.8854 114.803 11.2177 114.94C11.5499 115.077 11.852 115.278 12.1068 115.533C12.3615 115.787 12.5639 116.089 12.7024 116.422L22.4472 139.828C22.6211 140.245 22.6897 140.699 22.6468 141.149C22.6039 141.6 22.4508 142.032 22.2012 142.409C21.9517 142.786 21.6133 143.094 21.2162 143.308C20.8191 143.522 20.3756 143.634 19.925 143.634Z" fill="#1C3B78"/>
<path d="M17.8708 145.031C17.5197 145.031 17.1614 144.963 16.8175 144.817L-6.49366 135.028C-7.14832 134.737 -7.66335 134.2 -7.92819 133.532C-8.19304 132.865 -8.18657 132.119 -7.91019 131.456C-7.6338 130.793 -7.10954 130.265 -6.44994 129.986C-5.79034 129.707 -5.048 129.699 -4.38228 129.963L18.9289 139.752C19.5116 139.997 19.9917 140.438 20.2878 140.998C20.5838 141.558 20.6774 142.205 20.5528 142.826C20.4281 143.448 20.0928 144.008 19.6039 144.409C19.115 144.811 18.5026 145.031 17.8708 145.031Z" fill="#1C3B78"/>
<path d="M11.4198 152.168C10.3498 152.168 9.33229 151.535 8.89521 150.48L-0.849626 127.073C-1.1293 126.401 -1.13165 125.645 -0.856184 124.972C-0.580714 124.298 -0.0499791 123.762 0.619265 123.481C1.28851 123.2 2.04144 123.198 2.71242 123.474C3.38341 123.751 3.91748 124.284 4.19715 124.956L13.942 148.362C14.1159 148.779 14.1844 149.233 14.1415 149.684C14.0986 150.134 13.9456 150.567 13.696 150.943C13.4464 151.32 13.108 151.629 12.7109 151.842C12.3138 152.056 11.8703 152.168 11.4198 152.168ZM72.0623 97.9138C70.8418 97.9138 69.7001 97.439 68.8403 96.5756L46.8236 74.4668C45.9638 73.6058 45.4909 72.4547 45.4909 71.2316C45.4909 70.0086 45.9638 68.8574 46.8236 67.9965L57.9442 56.8306C59.6663 55.1039 62.6685 55.1063 64.3906 56.8282L86.4073 78.9394C87.2612 79.7982 87.7409 80.9622 87.7409 82.1757C87.7409 83.3893 87.2612 84.5533 86.4073 85.4121L75.2867 96.5756C74.4245 97.439 73.2804 97.9138 72.0623 97.9138ZM51.3354 71.2316L72.0623 92.0455L81.8931 82.1745L61.1662 61.3607L51.3354 71.2316Z" fill="#1C3B78"/>
<path d="M81.5611 80.7038C80.835 80.7038 80.14 80.4136 79.6264 79.9004L64.1446 64.353C63.6319 63.8381 63.3439 63.1398 63.3439 62.4117C63.3439 61.6836 63.6319 60.9853 64.1446 60.4703L178.071 -53.9061C179.991 -55.8442 182.274 -57.3806 184.789 -58.4266C187.305 -59.4726 190.001 -60.0074 192.724 -59.9999C195.447 -60.0074 198.144 -59.4724 200.66 -58.426C203.175 -57.3796 205.459 -55.8425 207.379 -53.9037L210.143 -51.129C210.397 -50.8742 210.599 -50.5714 210.737 -50.2381C210.875 -49.9048 210.946 -49.5474 210.946 -49.1865C210.946 -48.8256 210.875 -48.4683 210.737 -48.1349C210.599 -47.8016 210.397 -47.4988 210.143 -47.244L83.4933 79.9004C83.2397 80.1554 82.9385 80.3576 82.6069 80.4954C82.2754 80.6333 81.92 80.7041 81.5611 80.7038ZM69.9461 62.4105L81.5611 74.0752L204.341 -49.1865L203.512 -50.0187C202.099 -51.4457 200.418 -52.5771 198.566 -53.3473C196.714 -54.1175 194.728 -54.5112 192.724 -54.5057C188.649 -54.5057 184.818 -52.9133 181.938 -50.0211L69.9461 62.4105ZM56.2317 79.3057C55.691 79.3055 55.1625 79.1445 54.713 78.8429C54.2635 78.5413 53.9131 78.1127 53.706 77.6113C53.499 77.1098 53.4446 76.558 53.5498 76.0255C53.655 75.493 53.915 75.0038 54.297 74.6196L60.1845 68.7105C60.7005 68.2112 61.391 67.9352 62.1076 67.9418C62.8241 67.9484 63.5094 68.2372 64.0161 68.7459C64.5228 69.2547 64.8104 69.9428 64.817 70.6623C64.8236 71.3818 64.5487 72.0751 64.0514 72.5932L58.1639 78.5023C57.9107 78.7578 57.6096 78.9603 57.2779 79.0982C56.9462 79.2361 56.5906 79.3066 56.2317 79.3057Z" fill="#1C3B78"/>
<path d="M76.2013 70.5369C75.6607 70.5368 75.1322 70.3758 74.6827 70.0742C74.2331 69.7726 73.8827 69.344 73.6757 68.8425C73.4687 68.341 73.4143 67.7892 73.5195 67.2567C73.6247 66.7243 73.8847 66.235 74.2667 65.8509L156.305 -16.5123C156.821 -17.0116 157.511 -17.2877 158.228 -17.281C158.944 -17.2744 159.63 -16.9857 160.136 -16.4769C160.643 -15.9681 160.931 -15.28 160.937 -14.5605C160.944 -13.841 160.669 -13.1477 160.172 -12.6297L78.1336 69.7311C77.8805 69.987 77.5794 70.1899 77.2478 70.3282C76.9161 70.4665 76.5605 70.5374 76.2013 70.5369ZM167.132 -20.7523C166.59 -20.7513 166.061 -20.9118 165.61 -21.2135C165.16 -21.5152 164.809 -21.9444 164.602 -22.4468C164.395 -22.9491 164.341 -23.5019 164.447 -24.035C164.554 -24.568 164.816 -25.0573 165.199 -25.4407L166.246 -26.4911C166.759 -27.006 167.454 -27.2951 168.18 -27.2949C168.905 -27.2947 169.601 -27.0051 170.114 -26.49C170.626 -25.9748 170.914 -25.2761 170.914 -24.5478C170.914 -23.8194 170.625 -23.121 170.112 -22.6061L169.066 -21.5557C168.812 -21.3008 168.511 -21.0986 168.179 -20.9608C167.847 -20.8229 167.491 -20.7521 167.132 -20.7523Z" fill="#1C3B78"/>
<path d="M20.24 41H10.285V9.485H1.265V1.73H29.26V9.485H20.24V41ZM58.6115 29.615C58.6115 31.8517 58.1165 33.8867 57.1265 35.72C56.1365 37.5167 54.5599 38.9467 52.3965 40.01C50.2699 41.0367 47.5382 41.55 44.2015 41.55C42.4782 41.55 40.9749 41.4583 39.6915 41.275C38.4449 41.0917 37.2715 40.835 36.1715 40.505C35.1082 40.1383 33.9899 39.68 32.8165 39.13V30.605C34.7965 31.5217 36.7949 32.2917 38.8115 32.915C40.8649 33.5383 42.7349 33.85 44.4215 33.85C45.4115 33.85 46.2182 33.7033 46.8415 33.41C47.4649 33.08 47.9232 32.6583 48.2165 32.145C48.5099 31.595 48.6565 30.9717 48.6565 30.275C48.6565 29.4317 48.4365 28.7167 47.9965 28.13C47.5932 27.5067 46.8965 26.92 45.9065 26.37C44.9165 25.7833 43.6149 25.16 42.0015 24.5C40.6449 23.9133 39.4165 23.29 38.3165 22.63C37.2165 21.9333 36.2815 21.145 35.5115 20.265C34.7415 19.3483 34.1365 18.2667 33.6965 17.02C33.2932 15.7367 33.0915 14.2333 33.0915 12.51C33.0915 10.0533 33.6782 8 34.8515 6.35C36.0249 4.66333 37.6382 3.38 39.6915 2.5C41.7815 1.62 44.2015 1.18 46.9515 1.18C49.3715 1.18 51.5349 1.43666 53.4415 1.95C55.3849 2.46333 57.1265 3.12333 58.6665 3.93L55.5865 11.245C54.0465 10.475 52.5065 9.88833 50.9665 9.485C49.4265 9.045 47.9965 8.825 46.6765 8.825C45.7965 8.825 45.0815 8.97166 44.5315 9.265C43.9815 9.52166 43.5782 9.90666 43.3215 10.42C43.0649 10.8967 42.9365 11.465 42.9365 12.125C42.9365 12.895 43.1565 13.5733 43.5965 14.16C44.0732 14.71 44.8432 15.2783 45.9065 15.865C46.9699 16.4517 48.3999 17.2033 50.1965 18.12C51.9932 18.9633 53.5149 19.8983 54.7615 20.925C56.0449 21.915 56.9982 23.1067 57.6215 24.5C58.2815 25.8567 58.6115 27.5617 58.6115 29.615Z" fill="#3178C6"/>
<path d="M164.22 99.5226C163.156 99.1614 162.082 98.8269 161.001 98.5192C161.183 97.7851 161.35 97.0599 161.498 96.3475C163.935 84.6481 162.342 75.2228 156.901 72.1196C151.684 69.1446 143.153 72.2467 134.536 79.6637C133.687 80.396 132.857 81.1493 132.046 81.9231C131.503 81.4086 130.951 80.904 130.389 80.4097C121.359 72.4793 112.307 69.1369 106.872 72.249C101.66 75.2333 100.117 84.0937 102.311 95.1814C102.529 96.2796 102.775 97.372 103.05 98.4578C101.768 98.8179 100.532 99.2011 99.3488 99.6091C88.7613 103.26 82 108.982 82 114.917C82 121.046 89.2586 127.194 100.286 130.922C101.18 131.223 102.081 131.502 102.989 131.759C102.695 132.928 102.433 134.106 102.204 135.289C100.113 146.185 101.746 154.836 106.944 157.801C112.313 160.863 121.324 157.716 130.098 150.13C130.809 149.513 131.505 148.879 132.184 148.228C133.062 149.066 133.964 149.879 134.887 150.667C143.387 157.901 151.78 160.822 156.973 157.848C162.337 154.777 164.08 145.484 161.817 134.177C161.639 133.291 161.439 132.41 161.218 131.533C161.85 131.348 162.471 131.157 163.077 130.958C174.541 127.202 182 121.128 182 114.917C182 108.96 175.02 103.2 164.22 99.5226ZM161.734 126.948C161.187 127.127 160.626 127.3 160.054 127.468C158.788 123.505 157.08 119.291 154.99 114.937C156.985 110.687 158.627 106.527 159.857 102.59C160.88 102.883 161.873 103.192 162.83 103.518C172.084 106.669 177.728 111.327 177.728 114.917C177.728 118.74 171.632 123.704 161.734 126.948ZM157.627 134.997C158.627 139.997 158.77 144.517 158.107 148.051C157.512 151.227 156.314 153.344 154.833 154.192C151.682 155.996 144.942 153.651 137.674 147.464C136.815 146.732 135.976 145.975 135.159 145.197C137.977 142.149 140.793 138.605 143.542 134.67C148.376 134.246 152.943 133.552 157.085 132.605C157.285 133.398 157.465 134.196 157.627 134.997ZM116.092 153.88C113.013 154.955 110.561 154.986 109.079 154.141C105.924 152.341 104.613 145.395 106.402 136.078C106.614 134.977 106.858 133.882 107.132 132.794C111.228 133.69 115.762 134.335 120.607 134.723C123.375 138.574 126.272 142.114 129.192 145.213C128.571 145.807 127.936 146.386 127.287 146.949C123.407 150.303 119.519 152.683 116.092 153.88ZM101.668 126.924C96.7918 125.276 92.7648 123.133 90.0047 120.796C87.5242 118.695 86.2723 116.609 86.2723 114.917C86.2723 111.315 91.7008 106.721 100.755 103.599C101.854 103.22 103.004 102.863 104.197 102.528C105.449 106.554 107.09 110.763 109.071 115.019C107.064 119.339 105.4 123.616 104.136 127.689C103.307 127.454 102.484 127.199 101.668 126.924ZM106.503 94.3697C104.624 84.8703 105.872 77.7044 109.013 75.9059C112.358 73.9904 119.756 76.7215 127.553 83.5694C128.062 84.0169 128.562 84.4736 129.054 84.939C126.148 88.0249 123.277 91.5381 120.535 95.3661C115.832 95.7973 111.33 96.4896 107.191 97.4173C106.936 96.4074 106.706 95.391 106.503 94.3697ZM149.639 104.905C148.661 103.235 147.647 101.585 146.598 99.9584C149.788 100.358 152.845 100.887 155.716 101.535C154.854 104.267 153.78 107.123 152.516 110.052C151.591 108.318 150.632 106.602 149.639 104.905ZM132.048 87.9588C134.018 90.0703 135.992 92.4275 137.933 94.9852C133.995 94.8012 130.051 94.8005 126.114 94.9828C128.057 92.4487 130.047 90.0946 132.048 87.9588ZM114.345 104.934C113.363 106.617 112.422 108.322 111.521 110.049C110.278 107.13 109.213 104.261 108.344 101.49C111.197 100.859 114.24 100.342 117.41 99.9507C116.349 101.588 115.327 103.249 114.345 104.934ZM117.501 130.183C114.226 129.822 111.137 129.332 108.285 128.718C109.168 125.897 110.256 122.967 111.527 119.986C112.431 121.714 113.376 123.42 114.361 125.104C115.375 126.835 116.424 128.53 117.501 130.183ZM132.166 142.172C130.141 140.012 128.121 137.621 126.149 135.05C128.064 135.125 130.016 135.162 132 135.162C134.038 135.162 136.053 135.117 138.036 135.03C136.089 137.647 134.123 140.041 132.166 142.172ZM152.556 119.834C153.893 122.848 155.019 125.763 155.914 128.535C153.014 129.189 149.884 129.716 146.586 130.108C147.642 128.45 148.666 126.772 149.655 125.075C150.661 123.349 151.628 121.602 152.556 119.834ZM145.955 122.964C144.44 125.566 142.84 128.12 141.158 130.62C138.11 130.833 135.055 130.939 132 130.938C128.888 130.938 125.861 130.842 122.946 130.655C121.22 128.161 119.589 125.603 118.058 122.987C116.534 120.385 115.112 117.726 113.792 115.018C115.108 112.308 116.527 109.648 118.046 107.044C119.564 104.439 121.181 101.893 122.894 99.4098C125.868 99.1872 128.918 99.0713 132 99.0713C135.096 99.0713 138.15 99.1884 141.123 99.4125C142.819 101.892 144.426 104.43 145.941 107.022C147.465 109.62 148.902 112.267 150.252 114.958C148.916 117.676 147.483 120.346 145.955 122.964ZM154.768 75.78C158.116 77.6901 159.418 85.393 157.314 95.4944C157.18 96.1388 157.029 96.7953 156.865 97.461C152.716 96.5136 148.211 95.8093 143.494 95.3715C140.746 91.5014 137.899 87.9828 135.041 84.9367C135.79 84.2225 136.557 83.5269 137.341 82.8504C144.724 76.4959 151.624 73.9869 154.768 75.78ZM132 106.085C136.932 106.085 140.93 110.039 140.93 114.917C140.93 119.795 136.932 123.749 132 123.749C127.068 123.749 123.07 119.795 123.07 114.917C123.07 110.039 127.068 106.085 132 106.085Z" fill="#00D8FF"/>
</g>
<defs>
<clipPath id="clip0_18_8">
<rect width="145" height="145" fill="white"/>
</clipPath>
</defs>
</svg>
