<svg width="600" height="402" viewBox="0 0 600 402" fill="none"
    xmlns="http://www.w3.org/2000/svg">
    <g clip-path="url(#clip0_20_2)">
        <rect x="1" y="231" width="598" height="170" fill="#D9D9D9" fill-opacity="0.2" />
        <rect x="1" y="231" width="598" height="170" fill="black" fill-opacity="0.8" />
        <rect x="1" y="231" width="598" height="170" stroke="#DCDCDC" stroke-width="2" />
        <circle cx="100.5" cy="264.5" r="13.5" fill="#32695D" stroke="#DCDCDC"
            stroke-width="2" />
        <circle cx="64.5" cy="314.5" r="13.5" fill="#32695D" stroke="#DCDCDC"
            stroke-width="2" />
        <circle cx="39.5" cy="364.5" r="13.5" fill="#32695D" stroke="#DCDCDC"
            stroke-width="2" />
        <circle cx="88.5" cy="364.5" r="13.5" fill="#32695D" stroke="#DCDCDC"
            stroke-width="2" />
        <circle cx="137.5" cy="314.5" r="13.5" fill="#32695D" stroke="#DCDCDC"
            stroke-width="2" />
        <circle cx="137.5" cy="364.5" r="13.5" fill="#32695D" stroke="#DCDCDC"
            stroke-width="2" />
        <line x1="92.0343" y1="274.702" x2="72.9433" y2="302.836" stroke="#DCDCDC"
            stroke-width="2.5" />
        <line x1="110.017" y1="275.273" x2="130.017" y2="303.273" stroke="#DCDCDC"
            stroke-width="2.5" />
        <line x1="137.25" y1="328" x2="137.25" y2="351" stroke="#DCDCDC" stroke-width="2.5" />
        <line x1="71.109" y1="326.423" x2="84.109" y2="351.423" stroke="#DCDCDC"
            stroke-width="2.5" />
        <line x1="58.109" y1="326.577" x2="45.109" y2="351.577" stroke="#DCDCDC"
            stroke-width="2.5" />
        <circle cx="269.5" cy="264.5" r="13.5" fill="#32695D" stroke="#DCDCDC"
            stroke-width="2" />
        <circle cx="233.5" cy="314.5" r="13.5" fill="#32695D" stroke="#DCDCDC"
            stroke-width="2" />
        <circle cx="208.5" cy="364.5" r="13.5" fill="#32695D" stroke="#DCDCDC"
            stroke-width="2" />
        <circle cx="257.5" cy="364.5" r="13.5" fill="#32695D" stroke="#DCDCDC"
            stroke-width="2" />
        <circle cx="306.5" cy="314.5" r="13.5" fill="#32695D" stroke="#DCDCDC"
            stroke-width="2" />
        <circle cx="306.5" cy="364.5" r="13.5" fill="#32695D" stroke="#DCDCDC"
            stroke-width="2" />
        <line x1="261.034" y1="274.702" x2="241.943" y2="302.836" stroke="#DCDCDC"
            stroke-width="2.5" />
        <line x1="279.017" y1="275.273" x2="299.017" y2="303.273" stroke="#DCDCDC"
            stroke-width="2.5" />
        <line x1="306.25" y1="328" x2="306.25" y2="351" stroke="#DCDCDC" stroke-width="2.5" />
        <line x1="240.109" y1="326.423" x2="253.109" y2="351.423" stroke="#DCDCDC"
            stroke-width="2.5" />
        <line x1="227.109" y1="326.577" x2="214.109" y2="351.577" stroke="#DCDCDC"
            stroke-width="2.5" />
        <circle cx="438.5" cy="264.5" r="13.5" fill="#32695D" stroke="#DCDCDC"
            stroke-width="2" />
        <circle cx="402.5" cy="314.5" r="13.5" fill="#32695D" stroke="#DCDCDC"
            stroke-width="2" />
        <circle cx="377.5" cy="364.5" r="13.5" fill="#32695D" stroke="#DCDCDC"
            stroke-width="2" />
        <circle cx="426.5" cy="364.5" r="13.5" fill="#32695D" stroke="#DCDCDC"
            stroke-width="2" />
        <circle cx="475.5" cy="314.5" r="13.5" fill="#C52F32" stroke="#DCDCDC"
            stroke-width="2" />
        <circle cx="475.5" cy="364.5" r="13.5" fill="#C52F32" stroke="#DCDCDC"
            stroke-width="2" />
        <line x1="430.034" y1="274.702" x2="410.943" y2="302.836" stroke="#DCDCDC"
            stroke-width="2.5" />
        <line x1="448.017" y1="275.273" x2="468.017" y2="303.273" stroke="#DCDCDC"
            stroke-width="2.5" />
        <line x1="475.25" y1="328" x2="475.25" y2="351" stroke="#DCDCDC" stroke-width="2.5" />
        <line x1="409.109" y1="326.423" x2="422.109" y2="351.423" stroke="#DCDCDC"
            stroke-width="2.5" />
        <line x1="396.109" y1="326.577" x2="383.109" y2="351.577" stroke="#DCDCDC"
            stroke-width="2.5" />
        <rect x="1" y="1" width="598" height="170" fill="#D9D9D9" fill-opacity="0.2" />
        <rect x="1" y="1" width="598" height="170" fill="black" fill-opacity="0.8" />
        <rect x="1" y="1" width="598" height="170" stroke="#DCDCDC" stroke-width="2" />
        <circle cx="100.5" cy="34.5" r="13.5" fill="#32695D" stroke="#DCDCDC"
            stroke-width="2" />
        <circle cx="64.5" cy="84.5" r="13.5" fill="#32695D" stroke="#DCDCDC" stroke-width="2" />
        <circle cx="39.5" cy="134.5" r="13.5" fill="#32695D" stroke="#DCDCDC"
            stroke-width="2" />
        <circle cx="88.5" cy="134.5" r="13.5" fill="#32695D" stroke="#DCDCDC"
            stroke-width="2" />
        <circle cx="137.5" cy="84.5" r="13.5" fill="#32695D" stroke="#DCDCDC"
            stroke-width="2" />
        <circle cx="137.5" cy="134.5" r="13.5" fill="#32695D" stroke="#DCDCDC"
            stroke-width="2" />
        <line x1="92.0343" y1="44.7019" x2="72.9433" y2="72.8361" stroke="#DCDCDC"
            stroke-width="2.5" />
        <line x1="110.017" y1="45.2735" x2="130.017" y2="73.2735" stroke="#DCDCDC"
            stroke-width="2.5" />
        <line x1="137.25" y1="98" x2="137.25" y2="121" stroke="#DCDCDC" stroke-width="2.5" />
        <line x1="71.109" y1="96.4233" x2="84.109" y2="121.423" stroke="#DCDCDC"
            stroke-width="2.5" />
        <line x1="58.109" y1="96.5767" x2="45.109" y2="121.577" stroke="#DCDCDC"
            stroke-width="2.5" />
        <circle cx="269.5" cy="34.5" r="13.5" fill="#32695D" stroke="#DCDCDC"
            stroke-width="2" />
        <circle cx="233.5" cy="84.5" r="13.5" fill="#32695D" stroke="#DCDCDC"
            stroke-width="2" />
        <circle cx="208.5" cy="134.5" r="13.5" fill="#32695D" stroke="#DCDCDC"
            stroke-width="2" />
        <circle cx="257.5" cy="134.5" r="13.5" fill="#32695D" stroke="#DCDCDC"
            stroke-width="2" />
        <circle cx="306.5" cy="84.5" r="13.5" fill="#C52F32" stroke="#DCDCDC"
            stroke-width="2" />
        <circle cx="306.5" cy="134.5" r="13.5" fill="#C52F32" stroke="#DCDCDC"
            stroke-width="2" />
        <line x1="261.034" y1="44.7019" x2="241.943" y2="72.8361" stroke="#DCDCDC"
            stroke-width="2.5" />
        <line x1="279.017" y1="45.2735" x2="299.017" y2="73.2735" stroke="#DCDCDC"
            stroke-width="2.5" />
        <line x1="306.25" y1="98" x2="306.25" y2="121" stroke="#DCDCDC" stroke-width="2.5" />
        <line x1="240.109" y1="96.4233" x2="253.109" y2="121.423" stroke="#DCDCDC"
            stroke-width="2.5" />
        <line x1="227.109" y1="96.5767" x2="214.109" y2="121.577" stroke="#DCDCDC"
            stroke-width="2.5" />
        <circle cx="438.5" cy="34.5" r="13.5" fill="#32695D" stroke="#DCDCDC"
            stroke-width="2" />
        <circle cx="402.5" cy="84.5" r="13.5" fill="#32695D" stroke="#DCDCDC"
            stroke-width="2" />
        <circle cx="377.5" cy="134.5" r="13.5" fill="#32695D" stroke="#DCDCDC"
            stroke-width="2" />
        <circle cx="426.5" cy="134.5" r="13.5" fill="#32695D" stroke="#DCDCDC"
            stroke-width="2" />
        <circle cx="475.5" cy="84.5" r="13.5" fill="#C52F32" stroke="#DCDCDC"
            stroke-width="2" />
        <circle cx="475.5" cy="134.5" r="13.5" fill="#C52F32" stroke="#DCDCDC"
            stroke-width="2" />
        <line x1="430.034" y1="44.7019" x2="410.943" y2="72.8361" stroke="#DCDCDC"
            stroke-width="2.5" />
        <line x1="448.017" y1="45.2735" x2="468.017" y2="73.2735" stroke="#DCDCDC"
            stroke-width="2.5" />
        <line x1="475.25" y1="98" x2="475.25" y2="121" stroke="#DCDCDC" stroke-width="2.5" />
        <line x1="409.109" y1="96.4233" x2="422.109" y2="121.423" stroke="#DCDCDC"
            stroke-width="2.5" />
        <line x1="396.109" y1="96.5767" x2="383.109" y2="121.577" stroke="#DCDCDC"
            stroke-width="2.5" />
        <path
            d="M40.175 196.725H54.9V199.7H40.175V196.725ZM48.275 198.15C48.6583 199.917 49.175 201.608 49.825 203.225C50.4917 204.825 51.3 206.267 52.25 207.55C53.2167 208.817 54.3333 209.85 55.6 210.65C55.3667 210.833 55.1083 211.067 54.825 211.35C54.5583 211.65 54.3 211.958 54.05 212.275C53.8 212.592 53.5917 212.883 53.425 213.15C52.075 212.167 50.9083 210.95 49.925 209.5C48.9583 208.05 48.1333 206.408 47.45 204.575C46.7833 202.725 46.225 200.758 45.775 198.675L48.275 198.15ZM49.4 191.55L51.675 190.3C52.025 190.733 52.3833 191.208 52.75 191.725C53.1167 192.225 53.45 192.725 53.75 193.225C54.0667 193.725 54.3167 194.167 54.5 194.55L52.075 196.025C51.9083 195.625 51.675 195.167 51.375 194.65C51.075 194.133 50.7583 193.608 50.425 193.075C50.0917 192.525 49.75 192.017 49.4 191.55ZM45.3 189.8H48.275V196.2C48.275 197.55 48.1917 198.967 48.025 200.45C47.8583 201.917 47.55 203.4 47.1 204.9C46.65 206.383 45.975 207.833 45.075 209.25C44.1917 210.65 43.0333 211.975 41.6 213.225C41.3167 212.908 40.9417 212.575 40.475 212.225C40.0083 211.875 39.575 211.567 39.175 211.3C40.5417 210.133 41.6333 208.9 42.45 207.6C43.2667 206.3 43.875 204.992 44.275 203.675C44.6917 202.358 44.9667 201.067 45.1 199.8C45.2333 198.533 45.3 197.333 45.3 196.2V189.8ZM36.575 189.725H39.55V213.2H36.575V189.725ZM31.85 194.3L34.2 192.925C34.55 193.408 34.9083 193.933 35.275 194.5C35.6583 195.067 36.0083 195.625 36.325 196.175C36.6583 196.708 36.9083 197.2 37.075 197.65L34.55 199.175C34.4 198.742 34.175 198.242 33.875 197.675C33.575 197.108 33.2417 196.533 32.875 195.95C32.525 195.35 32.1833 194.8 31.85 194.3ZM31.7 205.425C32.3833 204.925 33.2167 204.275 34.2 203.475C35.2 202.675 36.2 201.85 37.2 201L38.375 203.4C37.5417 204.183 36.675 204.983 35.775 205.8C34.8917 206.6 34.0417 207.333 33.225 208L31.7 205.425ZM63.425 207.375H66.35V209.875C66.35 210.192 66.4333 210.392 66.6 210.475C66.7667 210.558 67.1333 210.6 67.7 210.6C67.8333 210.6 68.05 210.6 68.35 210.6C68.65 210.6 68.9833 210.6 69.35 210.6C69.7167 210.6 70.0583 210.6 70.375 210.6C70.6917 210.6 70.9417 210.6 71.125 210.6C71.425 210.6 71.65 210.558 71.8 210.475C71.95 210.375 72.0583 210.192 72.125 209.925C72.2083 209.658 72.2667 209.25 72.3 208.7C72.5833 208.9 72.975 209.092 73.475 209.275C73.975 209.442 74.425 209.567 74.825 209.65C74.725 210.533 74.55 211.217 74.3 211.7C74.0667 212.183 73.7167 212.517 73.25 212.7C72.8 212.9 72.1917 213 71.425 213C71.2917 213 71.0833 213 70.8 213C70.5333 213 70.225 213 69.875 213C69.5417 213 69.2 213 68.85 213C68.5167 213 68.2083 213 67.925 213C67.6583 213 67.4667 213 67.35 213C66.3 213 65.4917 212.908 64.925 212.725C64.3583 212.542 63.9667 212.225 63.75 211.775C63.5333 211.325 63.425 210.7 63.425 209.9V207.375ZM65.825 206.9L67.65 205.25C68.3333 205.567 69.0333 205.958 69.75 206.425C70.4667 206.892 71.025 207.342 71.425 207.775L69.475 209.575C69.2417 209.292 68.9167 208.992 68.5 208.675C68.1 208.342 67.6667 208.025 67.2 207.725C66.7333 207.408 66.275 207.133 65.825 206.9ZM73.65 208.175L76.025 206.85C76.5917 207.267 77.15 207.742 77.7 208.275C78.25 208.792 78.75 209.325 79.2 209.875C79.65 210.408 80 210.908 80.25 211.375L77.65 212.85C77.4333 212.383 77.1083 211.875 76.675 211.325C76.2583 210.775 75.7833 210.225 75.25 209.675C74.7333 209.125 74.2 208.625 73.65 208.175ZM60.175 207.075L62.725 208.05C62.375 208.983 61.9167 209.867 61.35 210.7C60.7833 211.533 60.0333 212.233 59.1 212.8L56.725 211.15C57.5417 210.7 58.2417 210.117 58.825 209.4C59.425 208.667 59.875 207.892 60.175 207.075ZM58.45 196.225H66V198.175H61.1V206.4H58.45V196.225ZM69.425 189.95H72.175V194.725C72.175 195.092 72.2417 195.325 72.375 195.425C72.525 195.508 72.85 195.55 73.35 195.55C73.45 195.55 73.6333 195.55 73.9 195.55C74.1667 195.55 74.45 195.55 74.75 195.55C75.0667 195.55 75.3667 195.55 75.65 195.55C75.9333 195.55 76.15 195.55 76.3 195.55C76.55 195.55 76.7333 195.508 76.85 195.425C76.9833 195.342 77.0833 195.183 77.15 194.95C77.2333 194.717 77.2917 194.358 77.325 193.875C77.6083 194.058 77.9833 194.242 78.45 194.425C78.9167 194.592 79.3417 194.717 79.725 194.8C79.625 195.617 79.4583 196.25 79.225 196.7C79.0083 197.15 78.6833 197.467 78.25 197.65C77.8333 197.833 77.275 197.925 76.575 197.925C76.4583 197.925 76.275 197.925 76.025 197.925C75.775 197.925 75.5 197.925 75.2 197.925C74.9167 197.925 74.625 197.925 74.325 197.925C74.025 197.925 73.7583 197.925 73.525 197.925C73.2917 197.925 73.1083 197.925 72.975 197.925C72.025 197.925 71.2917 197.833 70.775 197.65C70.2583 197.45 69.9 197.125 69.7 196.675C69.5167 196.208 69.425 195.567 69.425 194.75V189.95ZM69.425 198.125H72.175V203.175C72.175 203.542 72.2417 203.775 72.375 203.875C72.525 203.958 72.8583 204 73.375 204C73.475 204 73.6583 204 73.925 204C74.2083 204 74.5083 204 74.825 204C75.1583 204 75.4667 204 75.75 204C76.05 204 76.2667 204 76.4 204C76.6667 204 76.8667 203.958 77 203.875C77.15 203.792 77.25 203.625 77.3 203.375C77.3667 203.108 77.4167 202.717 77.45 202.2C77.7333 202.4 78.1083 202.592 78.575 202.775C79.0583 202.958 79.4917 203.083 79.875 203.15C79.775 204 79.6083 204.667 79.375 205.15C79.1583 205.617 78.8333 205.942 78.4 206.125C77.9667 206.308 77.3917 206.4 76.675 206.4C76.5583 206.4 76.375 206.4 76.125 206.4C75.8917 206.4 75.6167 206.4 75.3 206.4C75 206.4 74.6917 206.4 74.375 206.4C74.075 206.4 73.8 206.4 73.55 206.4C73.3167 206.4 73.1333 206.4 73 206.4C72.0333 206.4 71.2917 206.308 70.775 206.125C70.2583 205.925 69.9 205.592 69.7 205.125C69.5167 204.658 69.425 204.017 69.425 203.2V198.125ZM60.725 189.625L63.7 190.35C63.2 191.117 62.675 191.883 62.125 192.65C61.5917 193.417 61.1083 194.067 60.675 194.6L58.55 193.9C58.8167 193.483 59.0833 193.033 59.35 192.55C59.6167 192.05 59.8667 191.542 60.1 191.025C60.35 190.508 60.5583 190.042 60.725 189.625ZM64.025 191.675L66.125 190.6C66.5417 191 66.9583 191.45 67.375 191.95C67.8083 192.433 68.1917 192.925 68.525 193.425C68.8583 193.908 69.1167 194.358 69.3 194.775L67.05 196.025C66.8833 195.608 66.6333 195.15 66.3 194.65C65.9833 194.133 65.625 193.617 65.225 193.1C64.825 192.583 64.425 192.108 64.025 191.675ZM76.7 190.375L78.75 192.15C78.0667 192.433 77.3167 192.708 76.5 192.975C75.7 193.225 74.875 193.45 74.025 193.65C73.1917 193.85 72.3833 194.025 71.6 194.175C71.5333 193.908 71.425 193.592 71.275 193.225C71.1417 192.858 71 192.558 70.85 192.325C71.5667 192.142 72.2833 191.95 73 191.75C73.7167 191.55 74.4 191.333 75.05 191.1C75.7 190.85 76.25 190.608 76.7 190.375ZM76.95 198.725L79.05 200.525C78.35 200.825 77.575 201.108 76.725 201.375C75.8917 201.642 75.0333 201.883 74.15 202.1C73.2833 202.317 72.4417 202.5 71.625 202.65C71.575 202.383 71.475 202.067 71.325 201.7C71.175 201.317 71.0167 201 70.85 200.75C71.6 200.583 72.35 200.392 73.1 200.175C73.85 199.942 74.5583 199.7 75.225 199.45C75.8917 199.2 76.4667 198.958 76.95 198.725ZM65.175 196.225H67.875V204C67.875 204.55 67.8083 204.975 67.675 205.275C67.5583 205.575 67.3 205.808 66.9 205.975C66.55 206.158 66.1083 206.267 65.575 206.3C65.0583 206.333 64.4583 206.35 63.775 206.35C63.725 206.033 63.625 205.683 63.475 205.3C63.325 204.9 63.1667 204.567 63 204.3C63.3667 204.317 63.725 204.325 64.075 204.325C64.4417 204.325 64.6917 204.325 64.825 204.325C64.9583 204.325 65.05 204.3 65.1 204.25C65.15 204.2 65.175 204.117 65.175 204V196.225ZM57.15 193.05C58.4333 193.017 59.9667 192.983 61.75 192.95C63.55 192.9 65.375 192.85 67.225 192.8L67.15 194.95C65.4 195.033 63.65 195.108 61.9 195.175C60.1667 195.242 58.625 195.3 57.275 195.35L57.15 193.05ZM60.025 199.05H66.075V200.65H60.025V199.05ZM60.025 201.575H66.075V203.25H60.025V201.575ZM82.425 191.925H104.65V194.675H82.425V191.925ZM91.95 189.75H95.05V193.075H91.95V189.75ZM95.3 193.05H98.2V199.2C98.2 199.833 98.1333 200.342 98 200.725C97.8667 201.108 97.575 201.408 97.125 201.625C96.7083 201.825 96.2083 201.95 95.625 202C95.0417 202.033 94.3667 202.05 93.6 202.05C93.55 201.65 93.4417 201.208 93.275 200.725C93.125 200.225 92.9583 199.792 92.775 199.425C93.2083 199.442 93.6333 199.45 94.05 199.45C94.4833 199.45 94.775 199.45 94.925 199.45C95.0583 199.45 95.15 199.425 95.2 199.375C95.2667 199.325 95.3 199.242 95.3 199.125V193.05ZM90.225 192.65H93.025V194.65C93.025 195.3 92.975 195.992 92.875 196.725C92.7917 197.458 92.6083 198.192 92.325 198.925C92.0583 199.658 91.65 200.375 91.1 201.075C90.55 201.775 89.8167 202.408 88.9 202.975C88.75 202.775 88.5417 202.55 88.275 202.3C88.025 202.033 87.7583 201.783 87.475 201.55C87.1917 201.3 86.9333 201.1 86.7 200.95C87.5 200.483 88.1333 199.983 88.6 199.45C89.0667 198.9 89.4167 198.35 89.65 197.8C89.8833 197.233 90.0333 196.675 90.1 196.125C90.1833 195.558 90.225 195.033 90.225 194.55V192.65ZM98.9 196.75L101.225 195.425C101.708 195.875 102.2 196.383 102.7 196.95C103.217 197.517 103.7 198.075 104.15 198.625C104.6 199.175 104.958 199.675 105.225 200.125L102.725 201.65C102.492 201.183 102.158 200.667 101.725 200.1C101.308 199.533 100.85 198.958 100.35 198.375C99.8667 197.775 99.3833 197.233 98.9 196.75ZM85.625 195.525L88.425 196.275C87.9083 197.258 87.2583 198.217 86.475 199.15C85.6917 200.083 84.8667 200.858 84 201.475C83.7333 201.192 83.3917 200.883 82.975 200.55C82.5583 200.2 82.2083 199.933 81.925 199.75C82.4583 199.4 82.9667 198.992 83.45 198.525C83.9333 198.058 84.3583 197.567 84.725 197.05C85.1083 196.533 85.4083 196.025 85.625 195.525ZM89.8 204.55C90.65 205.783 91.8083 206.817 93.275 207.65C94.7583 208.467 96.5167 209.1 98.55 209.55C100.583 210 102.867 210.283 105.4 210.4C105.2 210.633 104.983 210.917 104.75 211.25C104.533 211.6 104.325 211.942 104.125 212.275C103.942 212.625 103.783 212.942 103.65 213.225C100.983 213.008 98.6083 212.6 96.525 212C94.4417 211.4 92.625 210.558 91.075 209.475C89.525 208.392 88.2083 207.033 87.125 205.4L89.8 204.55ZM90.4 201.175L93.55 201.8C92.5167 203.233 91.2583 204.533 89.775 205.7C88.3083 206.85 86.4917 207.867 84.325 208.75C84.2083 208.5 84.0417 208.233 83.825 207.95C83.6083 207.667 83.375 207.4 83.125 207.15C82.8917 206.883 82.6667 206.675 82.45 206.525C84.4667 205.842 86.125 205.033 87.425 204.1C88.725 203.167 89.7167 202.192 90.4 201.175ZM90.375 203.025H99.225V205.375H88.25L90.375 203.025ZM98.4 203.025H99.025L99.55 202.925L101.5 204.2C100.683 205.65 99.6417 206.9 98.375 207.95C97.125 209 95.6917 209.883 94.075 210.6C92.4583 211.3 90.725 211.867 88.875 212.3C87.025 212.75 85.1083 213.083 83.125 213.3C83.0583 213.05 82.9417 212.75 82.775 212.4C82.625 212.067 82.45 211.733 82.25 211.4C82.0667 211.067 81.8833 210.8 81.7 210.6C83.6333 210.45 85.4667 210.208 87.2 209.875C88.95 209.542 90.5583 209.1 92.025 208.55C93.4917 207.983 94.7667 207.283 95.85 206.45C96.95 205.617 97.8 204.633 98.4 203.5V203.025ZM107.5 190.9H129.525V193.575H107.5V190.9ZM117.125 192.025H120.275V202.125C120.275 203.142 120.175 204.117 119.975 205.05C119.775 205.983 119.425 206.867 118.925 207.7C118.442 208.533 117.767 209.3 116.9 210C116.05 210.7 114.958 211.325 113.625 211.875C112.292 212.425 110.683 212.892 108.8 213.275C108.683 213.042 108.517 212.758 108.3 212.425C108.1 212.092 107.883 211.758 107.65 211.425C107.417 211.108 107.192 210.833 106.975 210.6C108.775 210.333 110.283 209.992 111.5 209.575C112.717 209.158 113.7 208.692 114.45 208.175C115.2 207.642 115.767 207.058 116.15 206.425C116.533 205.792 116.792 205.117 116.925 204.4C117.058 203.667 117.125 202.9 117.125 202.1V192.025ZM112.525 201.325V202.95H124.975V201.325H112.525ZM112.525 197.45V199.075H124.975V197.45H112.525ZM109.675 195.025H127.95V205.375H109.675V195.025ZM112.65 205.25C113.533 206.367 114.558 207.25 115.725 207.9C116.908 208.55 118.233 209.033 119.7 209.35C121.183 209.65 122.825 209.842 124.625 209.925C126.442 209.992 128.417 210.025 130.55 210.025C130.283 210.358 130.025 210.808 129.775 211.375C129.525 211.942 129.358 212.475 129.275 212.975C127.075 212.942 125.017 212.833 123.1 212.65C121.183 212.483 119.417 212.167 117.8 211.7C116.183 211.25 114.725 210.592 113.425 209.725C112.125 208.858 111 207.717 110.05 206.3L112.65 205.25Z"
            fill="white" />
        <path
            d="M215.375 192.725H235.75V195.3H215.375V192.725ZM216.675 196.625H234.425V199.075H216.675V196.625ZM219.35 210.125H236.3V212.725H219.35V210.125ZM214.325 200.425H236.65V203.05H214.325V200.425ZM221.75 204.375H234.55V206.95H221.75V204.375ZM223.9 194.1H227V202.425H223.9V194.1ZM226.15 205.525H229.2V211.275H226.15V205.525ZM218.6 190.825L221.2 189.825C221.55 190.225 221.883 190.692 222.2 191.225C222.533 191.758 222.775 192.233 222.925 192.65L220.2 193.8C220.083 193.383 219.867 192.892 219.55 192.325C219.25 191.758 218.933 191.258 218.6 190.825ZM229.5 189.7L232.775 190.525C232.375 191.108 231.983 191.667 231.6 192.2C231.233 192.717 230.9 193.167 230.6 193.55L228.05 192.775C228.217 192.475 228.392 192.15 228.575 191.8C228.758 191.433 228.925 191.067 229.075 190.7C229.242 190.333 229.383 190 229.5 189.7ZM219.15 201.625L222.325 202.15C221.792 204.567 221 206.725 219.95 208.625C218.917 210.508 217.633 212.042 216.1 213.225C215.933 213.042 215.692 212.808 215.375 212.525C215.075 212.258 214.758 212 214.425 211.75C214.092 211.5 213.8 211.3 213.55 211.15C215.05 210.167 216.258 208.858 217.175 207.225C218.108 205.575 218.767 203.708 219.15 201.625ZM242.875 198.95H256.4V201.85H242.875V198.95ZM255.4 198.95H258.55C258.55 198.95 258.55 199.033 258.55 199.2C258.55 199.35 258.55 199.533 258.55 199.75C258.55 199.95 258.542 200.117 258.525 200.25C258.458 202.133 258.383 203.758 258.3 205.125C258.217 206.475 258.117 207.6 258 208.5C257.9 209.4 257.775 210.117 257.625 210.65C257.475 211.183 257.292 211.583 257.075 211.85C256.742 212.25 256.392 212.533 256.025 212.7C255.675 212.867 255.258 212.983 254.775 213.05C254.358 213.117 253.808 213.15 253.125 213.15C252.442 213.167 251.725 213.158 250.975 213.125C250.958 212.675 250.858 212.158 250.675 211.575C250.492 211.008 250.267 210.517 250 210.1C250.7 210.15 251.35 210.183 251.95 210.2C252.55 210.217 253 210.225 253.3 210.225C253.533 210.225 253.725 210.208 253.875 210.175C254.025 210.125 254.175 210.025 254.325 209.875C254.525 209.658 254.683 209.183 254.8 208.45C254.933 207.7 255.05 206.6 255.15 205.15C255.25 203.683 255.333 201.792 255.4 199.475V198.95ZM245.675 190.075L248.925 191.025C248.308 192.475 247.567 193.875 246.7 195.225C245.85 196.575 244.925 197.817 243.925 198.95C242.942 200.083 241.917 201.067 240.85 201.9C240.667 201.683 240.417 201.425 240.1 201.125C239.783 200.808 239.458 200.5 239.125 200.2C238.808 199.9 238.525 199.658 238.275 199.475C239.308 198.775 240.292 197.942 241.225 196.975C242.175 195.992 243.033 194.917 243.8 193.75C244.567 192.567 245.192 191.342 245.675 190.075ZM255.2 190.025C255.6 190.825 256.083 191.642 256.65 192.475C257.217 193.308 257.833 194.125 258.5 194.925C259.183 195.708 259.875 196.45 260.575 197.15C261.292 197.85 261.992 198.458 262.675 198.975C262.408 199.175 262.108 199.442 261.775 199.775C261.458 200.092 261.15 200.417 260.85 200.75C260.567 201.083 260.325 201.392 260.125 201.675C259.425 201.025 258.717 200.3 258 199.5C257.283 198.683 256.575 197.825 255.875 196.925C255.192 196.008 254.542 195.067 253.925 194.1C253.308 193.117 252.75 192.15 252.25 191.2L255.2 190.025ZM247.325 199.8H250.6C250.483 201.2 250.292 202.567 250.025 203.9C249.758 205.233 249.317 206.492 248.7 207.675C248.1 208.858 247.225 209.942 246.075 210.925C244.942 211.892 243.442 212.717 241.575 213.4C241.458 213.117 241.292 212.808 241.075 212.475C240.858 212.142 240.625 211.808 240.375 211.475C240.125 211.158 239.875 210.883 239.625 210.65C241.308 210.117 242.642 209.458 243.625 208.675C244.608 207.875 245.35 207.008 245.85 206.075C246.35 205.125 246.692 204.117 246.875 203.05C247.075 201.983 247.225 200.9 247.325 199.8ZM264.125 194.925H272.275V197.7H264.125V194.925ZM267.2 189.75H269.975V213.225H267.2V189.75ZM267.2 196.85L268.9 197.4C268.717 198.4 268.492 199.433 268.225 200.5C267.958 201.567 267.65 202.617 267.3 203.65C266.967 204.667 266.6 205.617 266.2 206.5C265.8 207.383 265.375 208.15 264.925 208.8C264.792 208.4 264.583 207.942 264.3 207.425C264.033 206.908 263.783 206.475 263.55 206.125C263.967 205.575 264.358 204.933 264.725 204.2C265.092 203.467 265.433 202.683 265.75 201.85C266.083 201.017 266.367 200.175 266.6 199.325C266.85 198.458 267.05 197.633 267.2 196.85ZM269.85 198.725C269.983 198.892 270.192 199.183 270.475 199.6C270.758 200 271.058 200.433 271.375 200.9C271.692 201.367 271.983 201.808 272.25 202.225C272.517 202.625 272.7 202.908 272.8 203.075L271.25 205.4C271.117 205.033 270.942 204.608 270.725 204.125C270.508 203.625 270.267 203.117 270 202.6C269.75 202.067 269.5 201.575 269.25 201.125C269.017 200.658 268.825 200.283 268.675 200L269.85 198.725ZM275.05 195.525H284.175V197.975H275.05V195.525ZM279.525 192.375C279.075 193.042 278.5 193.725 277.8 194.425C277.117 195.108 276.358 195.758 275.525 196.375C274.708 196.975 273.867 197.492 273 197.925C272.85 197.542 272.633 197.108 272.35 196.625C272.067 196.142 271.808 195.742 271.575 195.425C272.475 195.025 273.333 194.525 274.15 193.925C274.983 193.308 275.733 192.642 276.4 191.925C277.083 191.208 277.642 190.5 278.075 189.8H280.8C281.383 190.6 282.042 191.358 282.775 192.075C283.525 192.775 284.317 193.408 285.15 193.975C286 194.525 286.858 194.967 287.725 195.3C287.458 195.65 287.183 196.075 286.9 196.575C286.617 197.058 286.375 197.508 286.175 197.925C285.375 197.525 284.55 197.025 283.7 196.425C282.867 195.808 282.083 195.15 281.35 194.45C280.633 193.75 280.025 193.058 279.525 192.375ZM275.7 201.875V204.225H283.525V201.875H275.7ZM273.1 199.575H286.225V206.525H273.1V199.575ZM278.175 197.075H280.875V203.475C280.875 204.392 280.775 205.325 280.575 206.275C280.392 207.208 280.025 208.117 279.475 209C278.925 209.883 278.133 210.7 277.1 211.45C276.067 212.2 274.725 212.842 273.075 213.375C272.992 213.158 272.85 212.908 272.65 212.625C272.467 212.342 272.267 212.058 272.05 211.775C271.833 211.508 271.642 211.3 271.475 211.15C272.992 210.667 274.2 210.133 275.1 209.55C276 208.967 276.667 208.342 277.1 207.675C277.533 206.992 277.817 206.292 277.95 205.575C278.1 204.858 278.175 204.125 278.175 203.375V197.075ZM281.075 205.025C281.608 206.275 282.192 207.275 282.825 208.025C283.458 208.775 284.167 209.367 284.95 209.8C285.75 210.217 286.625 210.567 287.575 210.85C287.225 211.15 286.883 211.525 286.55 211.975C286.233 212.442 285.992 212.9 285.825 213.35C284.758 212.933 283.775 212.425 282.875 211.825C281.992 211.225 281.192 210.433 280.475 209.45C279.758 208.45 279.117 207.158 278.55 205.575L281.075 205.025ZM292 208.85H309.075V211.775H292V208.85ZM298.8 190.025H301.9V210.65H298.8V190.025ZM290.525 202.6H293.575V213.25H290.525V202.6ZM307.475 202.6H310.6V213.225H307.475V202.6ZM291.5 192.125H294.5V198.325H306.45V192.1H309.6V201.25H291.5V192.125Z"
            fill="white" />
        <path
            d="M395.125 195.325V196.35H405.775V195.325H395.125ZM395.125 192.5V193.5H405.775V192.5H395.125ZM392.25 190.55H408.775V198.3H392.25V190.55ZM389.3 199.2H411.65V201.575H389.3V199.2ZM400.775 202.5H408.95V204.8H400.775V202.5ZM393.15 202.575H398.825V204.65H393.15V202.575ZM393.15 205.725H398.825V207.8H393.15V205.725ZM403.825 204.575C404.525 206.108 405.592 207.425 407.025 208.525C408.475 209.625 410.2 210.408 412.2 210.875C412.017 211.058 411.808 211.283 411.575 211.55C411.342 211.833 411.125 212.125 410.925 212.425C410.725 212.725 410.558 212.992 410.425 213.225C408.275 212.575 406.45 211.575 404.95 210.225C403.467 208.875 402.292 207.217 401.425 205.25L403.825 204.575ZM408.05 202.5H408.6L409.1 202.425L410.95 203.125C410.45 204.858 409.742 206.383 408.825 207.7C407.908 209 406.825 210.1 405.575 211C404.342 211.917 402.975 212.658 401.475 213.225C401.308 212.858 401.067 212.442 400.75 211.975C400.433 211.525 400.133 211.158 399.85 210.875C400.817 210.575 401.733 210.175 402.6 209.675C403.483 209.175 404.283 208.583 405 207.9C405.717 207.217 406.333 206.458 406.85 205.625C407.383 204.792 407.783 203.9 408.05 202.95V202.5ZM389.075 209.35C389.925 209.3 390.875 209.242 391.925 209.175C392.975 209.092 394.083 209.008 395.25 208.925C396.417 208.825 397.592 208.725 398.775 208.625V211.075C397.092 211.225 395.417 211.375 393.75 211.525C392.1 211.692 390.617 211.833 389.3 211.95L389.075 209.35ZM397.3 199.975H400.15V213.25H397.3V199.975ZM391.275 200.025H394V210.25H391.275V200.025ZM423.95 190.1H427.225V209.475C427.225 210.408 427.108 211.108 426.875 211.575C426.642 212.042 426.242 212.4 425.675 212.65C425.092 212.883 424.358 213.033 423.475 213.1C422.608 213.183 421.567 213.217 420.35 213.2C420.3 212.917 420.208 212.583 420.075 212.2C419.942 211.833 419.792 211.458 419.625 211.075C419.475 210.692 419.317 210.367 419.15 210.1C419.7 210.117 420.25 210.133 420.8 210.15C421.35 210.167 421.842 210.175 422.275 210.175C422.708 210.158 423.017 210.15 423.2 210.15C423.467 210.15 423.658 210.1 423.775 210C423.892 209.9 423.95 209.725 423.95 209.475V190.1ZM429.95 196.675L432.9 195.575C433.583 196.758 434.242 198.025 434.875 199.375C435.525 200.708 436.092 202.025 436.575 203.325C437.075 204.608 437.433 205.775 437.65 206.825L434.35 208.125C434.183 207.108 433.875 205.95 433.425 204.65C432.992 203.333 432.467 201.983 431.85 200.6C431.25 199.2 430.617 197.892 429.95 196.675ZM417.4 195.85L420.8 196.425C420.517 197.658 420.175 198.975 419.775 200.375C419.375 201.758 418.9 203.083 418.35 204.35C417.817 205.6 417.2 206.692 416.5 207.625C416.25 207.442 415.942 207.25 415.575 207.05C415.225 206.85 414.867 206.667 414.5 206.5C414.15 206.317 413.833 206.167 413.55 206.05C414.233 205.2 414.825 204.192 415.325 203.025C415.842 201.842 416.275 200.625 416.625 199.375C416.975 198.108 417.233 196.933 417.4 195.85ZM450.65 195.45H459.25V197.9H450.65V195.45ZM446.35 209.95C447.1 209.833 447.967 209.692 448.95 209.525C449.95 209.358 451.008 209.183 452.125 209C453.242 208.8 454.35 208.6 455.45 208.4L455.7 211C454.25 211.333 452.792 211.658 451.325 211.975C449.858 212.308 448.525 212.6 447.325 212.85L446.35 209.95ZM448.95 190.875H451.85V210.625H448.95V190.875ZM450.65 190.875H460.625V202.575H450.65V200H457.65V193.45H450.65V190.875ZM455.85 200.85C456.167 202.35 456.6 203.742 457.15 205.025C457.7 206.292 458.4 207.408 459.25 208.375C460.1 209.342 461.142 210.092 462.375 210.625C462.158 210.825 461.925 211.067 461.675 211.35C461.425 211.65 461.183 211.958 460.95 212.275C460.733 212.608 460.558 212.908 460.425 213.175C459.075 212.458 457.942 211.525 457.025 210.375C456.125 209.208 455.383 207.858 454.8 206.325C454.217 204.792 453.742 203.108 453.375 201.275L455.85 200.85ZM459.475 202.75L461.825 204.375C461.142 205.042 460.417 205.7 459.65 206.35C458.9 206.983 458.208 207.525 457.575 207.975L455.725 206.55C456.125 206.217 456.55 205.833 457 205.4C457.467 204.967 457.917 204.517 458.35 204.05C458.783 203.583 459.158 203.15 459.475 202.75ZM439.85 190.825H446.075V193.525H442.65V213.25H439.85V190.825ZM445.25 190.825H445.775L446.2 190.725L448.25 191.9C448.017 192.633 447.767 193.408 447.5 194.225C447.233 195.042 446.967 195.85 446.7 196.65C446.433 197.45 446.167 198.175 445.9 198.825C446.717 199.792 447.242 200.708 447.475 201.575C447.725 202.425 447.85 203.217 447.85 203.95C447.85 204.783 447.758 205.467 447.575 206C447.392 206.533 447.092 206.95 446.675 207.25C446.475 207.4 446.242 207.517 445.975 207.6C445.725 207.683 445.467 207.75 445.2 207.8C444.967 207.833 444.692 207.85 444.375 207.85C444.075 207.85 443.767 207.85 443.45 207.85C443.433 207.467 443.367 207.017 443.25 206.5C443.15 205.983 443 205.542 442.8 205.175C443.033 205.192 443.242 205.2 443.425 205.2C443.625 205.2 443.8 205.2 443.95 205.2C444.083 205.2 444.208 205.183 444.325 205.15C444.458 205.1 444.583 205.042 444.7 204.975C444.85 204.858 444.958 204.683 445.025 204.45C445.108 204.2 445.142 203.9 445.125 203.55C445.125 202.967 445 202.3 444.75 201.55C444.517 200.783 444.025 199.983 443.275 199.15C443.458 198.583 443.642 197.958 443.825 197.275C444.025 196.592 444.208 195.908 444.375 195.225C444.558 194.525 444.725 193.875 444.875 193.275C445.042 192.658 445.167 192.15 445.25 191.75V190.825ZM464.5 190.9H486.525V193.575H464.5V190.9ZM474.125 192.025H477.275V202.125C477.275 203.142 477.175 204.117 476.975 205.05C476.775 205.983 476.425 206.867 475.925 207.7C475.442 208.533 474.767 209.3 473.9 210C473.05 210.7 471.958 211.325 470.625 211.875C469.292 212.425 467.683 212.892 465.8 213.275C465.683 213.042 465.517 212.758 465.3 212.425C465.1 212.092 464.883 211.758 464.65 211.425C464.417 211.108 464.192 210.833 463.975 210.6C465.775 210.333 467.283 209.992 468.5 209.575C469.717 209.158 470.7 208.692 471.45 208.175C472.2 207.642 472.767 207.058 473.15 206.425C473.533 205.792 473.792 205.117 473.925 204.4C474.058 203.667 474.125 202.9 474.125 202.1V192.025ZM469.525 201.325V202.95H481.975V201.325H469.525ZM469.525 197.45V199.075H481.975V197.45H469.525ZM466.675 195.025H484.95V205.375H466.675V195.025ZM469.65 205.25C470.533 206.367 471.558 207.25 472.725 207.9C473.908 208.55 475.233 209.033 476.7 209.35C478.183 209.65 479.825 209.842 481.625 209.925C483.442 209.992 485.417 210.025 487.55 210.025C487.283 210.358 487.025 210.808 486.775 211.375C486.525 211.942 486.358 212.475 486.275 212.975C484.075 212.942 482.017 212.833 480.1 212.65C478.183 212.483 476.417 212.167 474.8 211.7C473.183 211.25 471.725 210.592 470.425 209.725C469.125 208.858 468 207.717 467.05 206.3L469.65 205.25ZM502.875 198.025H512.225V200.8H502.875V198.025ZM489.325 192.25H500.6V194.675H489.325V192.25ZM489.1 202.2H500.575V204.725H489.1V202.2ZM489.025 197.825H500.8V200.275H489.025V197.825ZM506.925 199.25H509.85V213.125H506.925V199.25ZM493.525 189.975H496.425V193.325H493.525V189.975ZM493.525 200.125H496.425V213.2H493.525V200.125ZM501.525 191.725L505.025 192.725C505.008 192.942 504.8 193.083 504.4 193.15V200.5C504.4 201.433 504.35 202.458 504.25 203.575C504.167 204.675 503.992 205.808 503.725 206.975C503.458 208.125 503.067 209.242 502.55 210.325C502.033 211.408 501.35 212.4 500.5 213.3C500.383 213.067 500.192 212.817 499.925 212.55C499.675 212.283 499.408 212.025 499.125 211.775C498.858 211.542 498.6 211.367 498.35 211.25C499.083 210.483 499.658 209.658 500.075 208.775C500.508 207.875 500.825 206.95 501.025 206C501.242 205.05 501.375 204.108 501.425 203.175C501.492 202.225 501.525 201.317 501.525 200.45V191.725ZM509.7 190.025L512.1 192.2C511.25 192.583 510.325 192.933 509.325 193.25C508.325 193.567 507.3 193.85 506.25 194.1C505.217 194.333 504.217 194.542 503.25 194.725C503.167 194.408 503.033 194.025 502.85 193.575C502.667 193.125 502.483 192.75 502.3 192.45C503.2 192.25 504.108 192.025 505.025 191.775C505.942 191.508 506.8 191.225 507.6 190.925C508.417 190.625 509.117 190.325 509.7 190.025ZM496.225 204.825C496.408 204.925 496.675 205.108 497.025 205.375C497.392 205.642 497.775 205.933 498.175 206.25C498.575 206.55 498.933 206.833 499.25 207.1C499.583 207.35 499.833 207.533 500 207.65L498.25 209.8C498.05 209.567 497.792 209.283 497.475 208.95C497.175 208.6 496.842 208.25 496.475 207.9C496.125 207.55 495.783 207.217 495.45 206.9C495.117 206.583 494.833 206.325 494.6 206.125L496.225 204.825ZM490.575 195.05L492.9 194.5C493.117 194.95 493.308 195.458 493.475 196.025C493.642 196.575 493.75 197.05 493.8 197.45L491.375 198.125C491.342 197.708 491.25 197.217 491.1 196.65C490.967 196.067 490.792 195.533 490.575 195.05ZM496.8 194.45L499.475 194.975C499.242 195.542 499.017 196.092 498.8 196.625C498.583 197.142 498.383 197.583 498.2 197.95L495.8 197.45C495.917 197.167 496.042 196.85 496.175 196.5C496.308 196.15 496.433 195.8 496.55 195.45C496.667 195.083 496.75 194.75 496.8 194.45ZM493.55 203.65L495.65 204.45C495.25 205.35 494.767 206.258 494.2 207.175C493.633 208.075 493.017 208.917 492.35 209.7C491.683 210.483 491.017 211.142 490.35 211.675C490.133 211.358 489.833 210.992 489.45 210.575C489.067 210.142 488.717 209.8 488.4 209.55C489.05 209.133 489.7 208.608 490.35 207.975C491 207.325 491.6 206.633 492.15 205.9C492.717 205.15 493.183 204.4 493.55 203.65Z"
            fill="white" />
        <path d="M194 201L184 195.226V206.774L194 201ZM145 201V202H185V201V200H145V201Z"
            fill="white" />
        <path d="M370 201L360 195.226V206.774L370 201ZM321 201V202H361V201V200H321V201Z"
            fill="white" />
        <path
            d="M526.18 298.14C526.353 298.393 526.533 298.68 526.72 299C526.92 299.32 527.107 299.64 527.28 299.96C527.453 300.267 527.6 300.54 527.72 300.78L526.04 301.48C525.907 301.213 525.753 300.927 525.58 300.62C525.42 300.313 525.247 300.007 525.06 299.7C524.887 299.38 524.713 299.087 524.54 298.82L526.18 298.14ZM528.98 297.64C529.153 297.88 529.34 298.16 529.54 298.48C529.74 298.8 529.933 299.12 530.12 299.44C530.307 299.76 530.46 300.04 530.58 300.28L528.92 301C528.693 300.587 528.433 300.127 528.14 299.62C527.86 299.113 527.587 298.673 527.32 298.3L528.98 297.64ZM528.26 301.92C528.167 302.107 528.08 302.333 528 302.6C527.933 302.853 527.873 303.087 527.82 303.3C527.7 303.793 527.553 304.347 527.38 304.96C527.22 305.56 527.013 306.187 526.76 306.84C526.52 307.493 526.233 308.14 525.9 308.78C525.58 309.42 525.213 310.02 524.8 310.58C524.2 311.38 523.5 312.127 522.7 312.82C521.913 313.513 521.02 314.14 520.02 314.7C519.033 315.26 517.947 315.733 516.76 316.12L514.58 313.72C515.913 313.4 517.06 313.007 518.02 312.54C518.993 312.073 519.833 311.54 520.54 310.94C521.247 310.34 521.873 309.7 522.42 309.02C522.86 308.46 523.24 307.853 523.56 307.2C523.88 306.547 524.14 305.893 524.34 305.24C524.54 304.573 524.68 303.953 524.76 303.38C524.573 303.38 524.247 303.38 523.78 303.38C523.313 303.38 522.773 303.38 522.16 303.38C521.547 303.38 520.9 303.38 520.22 303.38C519.54 303.38 518.887 303.38 518.26 303.38C517.633 303.38 517.067 303.38 516.56 303.38C516.067 303.38 515.7 303.38 515.46 303.38C514.993 303.38 514.547 303.387 514.12 303.4C513.693 303.413 513.347 303.433 513.08 303.46V300.64C513.28 300.667 513.52 300.693 513.8 300.72C514.093 300.747 514.387 300.767 514.68 300.78C514.987 300.793 515.247 300.8 515.46 300.8C515.673 300.8 515.98 300.8 516.38 300.8C516.78 300.8 517.233 300.8 517.74 300.8C518.26 300.8 518.8 300.8 519.36 300.8C519.933 300.8 520.5 300.8 521.06 300.8C521.633 300.8 522.167 300.8 522.66 300.8C523.153 300.8 523.58 300.8 523.94 300.8C524.3 300.8 524.56 300.8 524.72 300.8C524.92 300.8 525.16 300.793 525.44 300.78C525.733 300.767 526.013 300.72 526.28 300.64L528.26 301.92ZM535.46 299.66C535.74 299.7 536.073 299.727 536.46 299.74C536.847 299.753 537.207 299.76 537.54 299.76C537.793 299.76 538.18 299.76 538.7 299.76C539.233 299.76 539.82 299.76 540.46 299.76C541.113 299.76 541.76 299.76 542.4 299.76C543.04 299.76 543.613 299.76 544.12 299.76C544.627 299.76 545 299.76 545.24 299.76C545.547 299.76 545.913 299.753 546.34 299.74C546.767 299.727 547.12 299.7 547.4 299.66V302.24C547.133 302.213 546.787 302.2 546.36 302.2C545.947 302.187 545.56 302.18 545.2 302.18C544.987 302.18 544.62 302.18 544.1 302.18C543.593 302.18 543.013 302.18 542.36 302.18C541.72 302.18 541.073 302.18 540.42 302.18C539.78 302.18 539.2 302.18 538.68 302.18C538.16 302.18 537.78 302.18 537.54 302.18C537.22 302.18 536.867 302.187 536.48 302.2C536.107 302.213 535.767 302.227 535.46 302.24V299.66ZM549.08 305.46C549.013 305.593 548.94 305.74 548.86 305.9C548.793 306.06 548.74 306.193 548.7 306.3C548.393 307.26 548.007 308.22 547.54 309.18C547.087 310.127 546.487 311.013 545.74 311.84C544.74 312.96 543.62 313.873 542.38 314.58C541.14 315.273 539.88 315.8 538.6 316.16L536.62 313.9C538.127 313.58 539.467 313.113 540.64 312.5C541.813 311.887 542.78 311.187 543.54 310.4C544.073 309.853 544.5 309.28 544.82 308.68C545.153 308.067 545.413 307.487 545.6 306.94C545.453 306.94 545.2 306.94 544.84 306.94C544.48 306.94 544.047 306.94 543.54 306.94C543.047 306.94 542.513 306.94 541.94 306.94C541.367 306.94 540.78 306.94 540.18 306.94C539.58 306.94 539.007 306.94 538.46 306.94C537.913 306.94 537.42 306.94 536.98 306.94C536.553 306.94 536.207 306.94 535.94 306.94C535.7 306.94 535.36 306.947 534.92 306.96C534.48 306.973 534.047 307 533.62 307.04V304.44C534.047 304.467 534.46 304.493 534.86 304.52C535.273 304.547 535.633 304.56 535.94 304.56C536.14 304.56 536.44 304.56 536.84 304.56C537.253 304.56 537.727 304.56 538.26 304.56C538.793 304.56 539.36 304.56 539.96 304.56C540.573 304.56 541.18 304.56 541.78 304.56C542.393 304.56 542.973 304.56 543.52 304.56C544.067 304.56 544.54 304.56 544.94 304.56C545.34 304.56 545.64 304.56 545.84 304.56C546.16 304.56 546.447 304.54 546.7 304.5C546.967 304.46 547.167 304.413 547.3 304.36L549.08 305.46ZM562.44 298.66C562.4 299.087 562.367 299.433 562.34 299.7C562.313 299.953 562.3 300.22 562.3 300.5C562.3 300.673 562.3 300.94 562.3 301.3C562.3 301.66 562.3 302.033 562.3 302.42C562.3 302.807 562.3 303.127 562.3 303.38H559.52C559.52 303.1 559.52 302.767 559.52 302.38C559.52 301.993 559.52 301.627 559.52 301.28C559.52 300.933 559.52 300.673 559.52 300.5C559.52 300.22 559.507 299.953 559.48 299.7C559.467 299.433 559.427 299.087 559.36 298.66H562.44ZM569.18 302.88C569.1 303.093 569.02 303.367 568.94 303.7C568.873 304.02 568.82 304.28 568.78 304.48C568.7 304.947 568.6 305.42 568.48 305.9C568.373 306.38 568.24 306.86 568.08 307.34C567.933 307.82 567.76 308.293 567.56 308.76C567.373 309.227 567.16 309.687 566.92 310.14C566.387 311.113 565.707 312 564.88 312.8C564.067 313.6 563.14 314.28 562.1 314.84C561.06 315.387 559.947 315.82 558.76 316.14L556.68 313.74C557.133 313.66 557.613 313.553 558.12 313.42C558.627 313.273 559.087 313.12 559.5 312.96C560.06 312.747 560.613 312.48 561.16 312.16C561.72 311.827 562.247 311.44 562.74 311C563.233 310.56 563.667 310.073 564.04 309.54C564.373 309.047 564.66 308.52 564.9 307.96C565.14 307.387 565.333 306.8 565.48 306.2C565.627 305.587 565.74 304.987 565.82 304.4H555.9C555.9 304.573 555.9 304.793 555.9 305.06C555.9 305.313 555.9 305.593 555.9 305.9C555.9 306.193 555.9 306.467 555.9 306.72C555.9 306.96 555.9 307.16 555.9 307.32C555.9 307.547 555.907 307.8 555.92 308.08C555.933 308.36 555.947 308.6 555.96 308.8H553.2C553.227 308.547 553.247 308.273 553.26 307.98C553.287 307.673 553.3 307.387 553.3 307.12C553.3 306.96 553.3 306.727 553.3 306.42C553.3 306.113 553.3 305.787 553.3 305.44C553.3 305.08 553.3 304.74 553.3 304.42C553.3 304.1 553.3 303.847 553.3 303.66C553.3 303.433 553.293 303.153 553.28 302.82C553.267 302.473 553.24 302.18 553.2 301.94C553.547 301.98 553.88 302.007 554.2 302.02C554.52 302.033 554.867 302.04 555.24 302.04H565.78C566.193 302.04 566.527 302.02 566.78 301.98C567.047 301.927 567.267 301.873 567.44 301.82L569.18 302.88ZM587.34 299.44C587.473 299.693 587.6 299.987 587.72 300.32C587.853 300.653 587.98 300.98 588.1 301.3C588.22 301.62 588.32 301.913 588.4 302.18L587.02 302.62C586.927 302.34 586.82 302.04 586.7 301.72C586.593 301.4 586.48 301.08 586.36 300.76C586.253 300.44 586.133 300.147 586 299.88L587.34 299.44ZM589.4 298.8C589.533 299.067 589.667 299.367 589.8 299.7C589.933 300.02 590.06 300.34 590.18 300.66C590.313 300.98 590.42 301.267 590.5 301.52L589.12 301.96C588.987 301.533 588.827 301.073 588.64 300.58C588.453 300.087 588.253 299.64 588.04 299.24L589.4 298.8ZM585.62 306.46C585.62 307.7 585.527 308.827 585.34 309.84C585.167 310.84 584.86 311.753 584.42 312.58C583.98 313.393 583.367 314.133 582.58 314.8C581.793 315.453 580.8 316.047 579.6 316.58L577.46 314.56C578.42 314.213 579.253 313.833 579.96 313.42C580.667 313.007 581.24 312.5 581.68 311.9C582.133 311.3 582.467 310.573 582.68 309.72C582.907 308.853 583.02 307.8 583.02 306.56V301.24C583.02 300.84 583.007 300.48 582.98 300.16C582.953 299.84 582.927 299.58 582.9 299.38H585.76C585.733 299.58 585.7 299.84 585.66 300.16C585.633 300.48 585.62 300.84 585.62 301.24V306.46ZM578.4 299.56C578.373 299.747 578.347 300 578.32 300.32C578.293 300.627 578.28 300.98 578.28 301.38V308.52C578.28 308.813 578.287 309.1 578.3 309.38C578.313 309.647 578.327 309.887 578.34 310.1C578.353 310.313 578.36 310.487 578.36 310.62H575.56C575.587 310.487 575.607 310.32 575.62 310.12C575.633 309.907 575.647 309.66 575.66 309.38C575.673 309.1 575.68 308.813 575.68 308.52V301.36C575.68 301.067 575.667 300.773 575.64 300.48C575.627 300.173 575.6 299.867 575.56 299.56H578.4ZM571.82 303.16C571.94 303.187 572.107 303.213 572.32 303.24C572.533 303.267 572.78 303.293 573.06 303.32C573.34 303.333 573.647 303.34 573.98 303.34H587.1C587.633 303.34 588.067 303.327 588.4 303.3C588.733 303.273 589.033 303.24 589.3 303.2V305.86C589.087 305.847 588.8 305.833 588.44 305.82C588.08 305.807 587.64 305.8 587.12 305.8H573.98C573.647 305.8 573.34 305.807 573.06 305.82C572.793 305.82 572.553 305.827 572.34 305.84C572.14 305.853 571.967 305.867 571.82 305.88V303.16ZM540.344 334.64C540.344 336.267 540.051 337.627 539.464 338.72C538.891 339.813 538.077 340.633 537.024 341.18C535.971 341.727 534.724 342 533.284 342H528.964V327.72H533.604C535.044 327.72 536.264 327.987 537.264 328.52C538.277 329.053 539.044 329.833 539.564 330.86C540.084 331.873 540.344 333.133 540.344 334.64ZM536.604 334.76C536.604 333.787 536.491 332.987 536.264 332.36C536.051 331.733 535.724 331.267 535.284 330.96C534.844 330.653 534.297 330.5 533.644 330.5H532.584V339.2H533.384C534.491 339.2 535.304 338.833 535.824 338.1C536.344 337.353 536.604 336.24 536.604 334.76ZM555.313 334.84C555.313 335.947 555.186 336.953 554.933 337.86C554.693 338.753 554.306 339.527 553.773 340.18C553.253 340.833 552.579 341.333 551.753 341.68C550.939 342.027 549.953 342.2 548.793 342.2C547.659 342.2 546.679 342.027 545.853 341.68C545.039 341.32 544.366 340.82 543.833 340.18C543.313 339.527 542.919 338.747 542.653 337.84C542.399 336.933 542.273 335.927 542.273 334.82C542.273 333.34 542.499 332.053 542.953 330.96C543.419 329.867 544.133 329.02 545.093 328.42C546.066 327.807 547.306 327.5 548.813 327.5C550.346 327.5 551.586 327.807 552.533 328.42C553.493 329.02 554.193 329.873 554.633 330.98C555.086 332.073 555.313 333.36 555.313 334.84ZM546.073 334.84C546.073 335.773 546.166 336.58 546.353 337.26C546.539 337.927 546.833 338.44 547.233 338.8C547.633 339.16 548.153 339.34 548.793 339.34C549.459 339.34 549.986 339.16 550.373 338.8C550.773 338.44 551.059 337.927 551.233 337.26C551.419 336.58 551.513 335.773 551.513 334.84C551.513 333.427 551.306 332.32 550.893 331.52C550.479 330.72 549.786 330.32 548.813 330.32C548.159 330.32 547.626 330.507 547.213 330.88C546.813 331.24 546.519 331.76 546.333 332.44C546.159 333.107 546.073 333.907 546.073 334.84ZM563.653 342L560.853 331.14H560.773C560.8 331.407 560.826 331.787 560.853 332.28C560.88 332.773 560.906 333.307 560.933 333.88C560.96 334.453 560.973 334.987 560.973 335.48V342H557.753V327.72H562.813L565.373 337.66H565.433L567.973 327.72H573.033V342H569.693V335.38C569.693 334.927 569.7 334.427 569.713 333.88C569.726 333.32 569.746 332.793 569.773 332.3C569.8 331.807 569.82 331.427 569.833 331.16H569.773L567.013 342H563.653Z"
            fill="white" />
        <path
            d="M539.5 69.02H541.86V74.86C541.86 75.7267 541.827 76.6867 541.76 77.74C541.693 78.7933 541.567 79.8667 541.38 80.96C541.193 82.04 540.92 83.0933 540.56 84.12C540.2 85.1333 539.727 86.0467 539.14 86.86C539.007 86.7133 538.82 86.5333 538.58 86.32C538.34 86.12 538.093 85.9267 537.84 85.74C537.6 85.5533 537.393 85.42 537.22 85.34C537.74 84.5933 538.153 83.78 538.46 82.9C538.767 82.02 538.993 81.1133 539.14 80.18C539.287 79.2333 539.38 78.3067 539.42 77.4C539.473 76.4933 539.5 75.6467 539.5 74.86V69.02ZM540.76 69.02H550.44V71.28H540.76V69.02ZM540.64 74.24H548.66V76.44H540.64V74.24ZM543.22 75.62C543.633 77.0333 544.193 78.3467 544.9 79.56C545.607 80.76 546.48 81.8067 547.52 82.7C548.573 83.5933 549.793 84.2867 551.18 84.78C551.007 84.94 550.813 85.14 550.6 85.38C550.4 85.62 550.207 85.8667 550.02 86.12C549.847 86.3867 549.693 86.62 549.56 86.82C548.08 86.2067 546.8 85.3867 545.72 84.36C544.64 83.3333 543.72 82.1267 542.96 80.74C542.213 79.3533 541.587 77.8133 541.08 76.12L543.22 75.62ZM547.94 74.24H548.4L548.82 74.16L550.3 74.7C549.927 76.8067 549.347 78.6533 548.56 80.24C547.787 81.8267 546.853 83.1733 545.76 84.28C544.667 85.3733 543.447 86.2333 542.1 86.86C542.007 86.6733 541.867 86.4533 541.68 86.2C541.493 85.9467 541.293 85.7 541.08 85.46C540.88 85.22 540.7 85.04 540.54 84.92C541.82 84.3733 542.96 83.64 543.96 82.72C544.973 81.7867 545.82 80.66 546.5 79.34C547.18 78.0067 547.66 76.4533 547.94 74.68V74.24ZM536.6 68.06L538.84 68.8C538.387 69.92 537.847 71.0467 537.22 72.18C536.607 73.3 535.94 74.36 535.22 75.36C534.513 76.3467 533.78 77.22 533.02 77.98C532.94 77.78 532.827 77.52 532.68 77.2C532.533 76.88 532.373 76.56 532.2 76.24C532.027 75.92 531.873 75.6667 531.74 75.48C532.38 74.88 533 74.1867 533.6 73.4C534.213 72.6133 534.773 71.76 535.28 70.84C535.787 69.92 536.227 68.9933 536.6 68.06ZM534.66 73.6L536.94 71.32V71.34V86.76H534.66V73.6ZM556.72 80.88H559.1V83.6C559.1 83.8933 559.173 84.08 559.32 84.16C559.48 84.2267 559.833 84.26 560.38 84.26C560.513 84.26 560.72 84.26 561 84.26C561.28 84.26 561.587 84.26 561.92 84.26C562.267 84.26 562.587 84.26 562.88 84.26C563.187 84.26 563.427 84.26 563.6 84.26C563.907 84.26 564.133 84.2133 564.28 84.12C564.44 84.0133 564.553 83.7933 564.62 83.46C564.687 83.1267 564.74 82.6267 564.78 81.96C564.94 82.08 565.147 82.2 565.4 82.32C565.667 82.4267 565.933 82.5267 566.2 82.62C566.48 82.7 566.727 82.7667 566.94 82.82C566.847 83.7667 566.693 84.4933 566.48 85C566.267 85.52 565.947 85.88 565.52 86.08C565.093 86.28 564.513 86.38 563.78 86.38C563.66 86.38 563.48 86.38 563.24 86.38C563 86.38 562.72 86.38 562.4 86.38C562.093 86.38 561.787 86.38 561.48 86.38C561.187 86.38 560.92 86.38 560.68 86.38C560.44 86.38 560.26 86.38 560.14 86.38C559.233 86.38 558.533 86.2933 558.04 86.12C557.547 85.96 557.2 85.68 557 85.28C556.813 84.88 556.72 84.3267 556.72 83.62V80.88ZM559.62 80.62L561.26 79.3C561.567 79.5533 561.887 79.84 562.22 80.16C562.567 80.48 562.9 80.8 563.22 81.12C563.54 81.4267 563.8 81.7 564 81.94L562.26 83.42C562.087 83.18 561.847 82.8933 561.54 82.56C561.233 82.2267 560.907 81.8933 560.56 81.56C560.227 81.2133 559.913 80.9 559.62 80.62ZM566.36 81.18L568.46 80.2C568.74 80.6 569.04 81.0467 569.36 81.54C569.68 82.0333 569.987 82.5133 570.28 82.98C570.573 83.4333 570.813 83.8333 571 84.18L568.76 85.34C568.6 84.98 568.38 84.56 568.1 84.08C567.833 83.6 567.54 83.1067 567.22 82.6C566.913 82.0933 566.627 81.62 566.36 81.18ZM553.86 80.46L556 81.3C555.867 81.7667 555.713 82.2667 555.54 82.8C555.367 83.3333 555.173 83.8533 554.96 84.36C554.76 84.8533 554.54 85.2933 554.3 85.68L552.1 84.6C552.353 84.24 552.587 83.8267 552.8 83.36C553.027 82.8933 553.233 82.4133 553.42 81.92C553.607 81.4133 553.753 80.9267 553.86 80.46ZM552.46 70.86H560.86V72.9H552.46V70.86ZM555.76 68.04H558.04V80.06H555.76V68.04ZM555.7 72.2L557.32 72.72C557.053 73.5333 556.72 74.3333 556.32 75.12C555.92 75.9067 555.48 76.64 555 77.32C554.52 78 554.02 78.5733 553.5 79.04C553.327 78.7867 553.087 78.4933 552.78 78.16C552.473 77.8133 552.2 77.5467 551.96 77.36C552.467 77 552.953 76.5467 553.42 76C553.9 75.44 554.333 74.8333 554.72 74.18C555.107 73.5133 555.433 72.8533 555.7 72.2ZM557.9 73.56C558.073 73.6533 558.313 73.8067 558.62 74.02C558.94 74.22 559.273 74.4467 559.62 74.7C559.98 74.94 560.3 75.1667 560.58 75.38C560.873 75.58 561.093 75.7333 561.24 75.84L559.96 77.76C559.773 77.5467 559.533 77.3067 559.24 77.04C558.96 76.76 558.66 76.4733 558.34 76.18C558.033 75.8867 557.727 75.6133 557.42 75.36C557.127 75.1067 556.88 74.9 556.68 74.74L557.9 73.56ZM563.84 73.82V75H567.54V73.82H563.84ZM563.84 76.76V77.96H567.54V76.76H563.84ZM563.84 70.9V72.06H567.54V70.9H563.84ZM561.66 69.02H569.84V79.82H561.66V69.02ZM540.844 104.64C540.844 106.267 540.551 107.627 539.964 108.72C539.391 109.813 538.577 110.633 537.524 111.18C536.471 111.727 535.224 112 533.784 112H529.464V97.72H534.104C535.544 97.72 536.764 97.9867 537.764 98.52C538.777 99.0533 539.544 99.8333 540.064 100.86C540.584 101.873 540.844 103.133 540.844 104.64ZM537.104 104.76C537.104 103.787 536.991 102.987 536.764 102.36C536.551 101.733 536.224 101.267 535.784 100.96C535.344 100.653 534.797 100.5 534.144 100.5H533.084V109.2H533.884C534.991 109.2 535.804 108.833 536.324 108.1C536.844 107.353 537.104 106.24 537.104 104.76ZM555.813 104.84C555.813 105.947 555.686 106.953 555.433 107.86C555.193 108.753 554.806 109.527 554.273 110.18C553.753 110.833 553.079 111.333 552.253 111.68C551.439 112.027 550.453 112.2 549.293 112.2C548.159 112.2 547.179 112.027 546.353 111.68C545.539 111.32 544.866 110.82 544.333 110.18C543.813 109.527 543.419 108.747 543.153 107.84C542.899 106.933 542.773 105.927 542.773 104.82C542.773 103.34 542.999 102.053 543.453 100.96C543.919 99.8667 544.633 99.02 545.593 98.42C546.566 97.8067 547.806 97.5 549.313 97.5C550.846 97.5 552.086 97.8067 553.033 98.42C553.993 99.02 554.693 99.8733 555.133 100.98C555.586 102.073 555.813 103.36 555.813 104.84ZM546.573 104.84C546.573 105.773 546.666 106.58 546.853 107.26C547.039 107.927 547.333 108.44 547.733 108.8C548.133 109.16 548.653 109.34 549.293 109.34C549.959 109.34 550.486 109.16 550.873 108.8C551.273 108.44 551.559 107.927 551.733 107.26C551.919 106.58 552.013 105.773 552.013 104.84C552.013 103.427 551.806 102.32 551.393 101.52C550.979 100.72 550.286 100.32 549.313 100.32C548.659 100.32 548.126 100.507 547.713 100.88C547.313 101.24 547.019 101.76 546.833 102.44C546.659 103.107 546.573 103.907 546.573 104.84ZM564.153 112L561.353 101.14H561.273C561.3 101.407 561.326 101.787 561.353 102.28C561.38 102.773 561.406 103.307 561.433 103.88C561.46 104.453 561.473 104.987 561.473 105.48V112H558.253V97.72H563.313L565.873 107.66H565.933L568.473 97.72H573.533V112H570.193V105.38C570.193 104.927 570.2 104.427 570.213 103.88C570.226 103.32 570.246 102.793 570.273 102.3C570.3 101.807 570.32 101.427 570.333 101.16H570.273L567.513 112H564.153Z"
            fill="white" />
    </g>
    <defs>
        <clipPath id="clip0_20_2">
            <rect width="600" height="402" fill="white" />
        </clipPath>
    </defs>
</svg>