<svg width="300" height="431" viewBox="0 0 300 431" fill="none" xmlns="http://www.w3.org/2000/svg">
<rect x="1" y="1" width="298" height="429" rx="22" fill="#AF114B" fill-opacity="0.58"/>
<rect x="1" y="1" width="298" height="429" rx="22" stroke="#FFDFE5" stroke-width="2"/>
<path d="M49.44 28.28C50.04 28.34 50.71 28.39 51.45 28.43C52.21 28.47 52.86 28.49 53.4 28.49H68.7C69.18 28.49 69.72 28.48 70.32 28.46C70.92 28.44 71.33 28.42 71.55 28.4C71.53 28.76 71.51 29.23 71.49 29.81C71.47 30.39 71.46 30.93 71.46 31.43V47C71.46 47.5 71.47 48.13 71.49 48.89C71.53 49.65 71.57 50.32 71.61 50.9H66.33C66.35 50.32 66.36 49.76 66.36 49.22C66.38 48.68 66.39 48.13 66.39 47.57V33.2H53.4C52.72 33.2 52 33.21 51.24 33.23C50.5 33.25 49.9 33.28 49.44 33.32V28.28ZM49.08 44.42C49.66 44.46 50.29 44.5 50.97 44.54C51.65 44.58 52.34 44.6 53.04 44.6H69.33V49.4H53.19C52.63 49.4 51.94 49.42 51.12 49.46C50.3 49.5 49.62 49.55 49.08 49.61V44.42ZM82.47 26.72C82.99 27.08 83.6 27.53 84.3 28.07C85 28.59 85.72 29.16 86.46 29.78C87.22 30.38 87.93 30.98 88.59 31.58C89.27 32.16 89.83 32.69 90.27 33.17L86.55 36.98C86.15 36.54 85.64 36.03 85.02 35.45C84.4 34.85 83.73 34.24 83.01 33.62C82.29 32.98 81.58 32.38 80.88 31.82C80.18 31.26 79.56 30.79 79.02 30.41L82.47 26.72ZM78.03 46.64C79.51 46.44 80.91 46.16 82.23 45.8C83.57 45.44 84.83 45.02 86.01 44.54C87.19 44.06 88.27 43.54 89.25 42.98C91.05 41.94 92.69 40.76 94.17 39.44C95.65 38.1 96.94 36.71 98.04 35.27C99.16 33.81 100.05 32.38 100.71 30.98L103.53 36.11C102.73 37.53 101.74 38.93 100.56 40.31C99.38 41.67 98.05 42.96 96.57 44.18C95.11 45.4 93.54 46.5 91.86 47.48C90.84 48.08 89.74 48.65 88.56 49.19C87.38 49.71 86.16 50.16 84.9 50.54C83.64 50.94 82.38 51.24 81.12 51.44L78.03 46.64ZM128.61 27.32C128.61 27.72 128.75 28.07 129.03 28.37C129.33 28.65 129.68 28.79 130.08 28.79C130.48 28.79 130.82 28.65 131.1 28.37C131.4 28.07 131.55 27.72 131.55 27.32C131.55 26.92 131.4 26.58 131.1 26.3C130.82 26 130.48 25.85 130.08 25.85C129.68 25.85 129.33 26 129.03 26.3C128.75 26.58 128.61 26.92 128.61 27.32ZM126.51 27.32C126.51 26.66 126.67 26.06 126.99 25.52C127.31 24.98 127.74 24.55 128.28 24.23C128.82 23.91 129.42 23.75 130.08 23.75C130.74 23.75 131.34 23.91 131.88 24.23C132.42 24.55 132.85 24.98 133.17 25.52C133.49 26.06 133.65 26.66 133.65 27.32C133.65 27.98 133.49 28.58 133.17 29.12C132.85 29.66 132.42 30.09 131.88 30.41C131.34 30.73 130.74 30.89 130.08 30.89C129.42 30.89 128.82 30.73 128.28 30.41C127.74 30.09 127.31 29.66 126.99 29.12C126.67 28.58 126.51 27.98 126.51 27.32ZM122.88 26C122.86 26.14 122.82 26.39 122.76 26.75C122.7 27.11 122.65 27.49 122.61 27.89C122.57 28.29 122.55 28.63 122.55 28.91C122.55 29.53 122.55 30.21 122.55 30.95C122.55 31.69 122.55 32.43 122.55 33.17C122.55 33.91 122.55 34.6 122.55 35.24C122.55 35.64 122.55 36.19 122.55 36.89C122.55 37.59 122.55 38.38 122.55 39.26C122.55 40.12 122.55 41.02 122.55 41.96C122.55 42.9 122.55 43.82 122.55 44.72C122.55 45.6 122.55 46.41 122.55 47.15C122.55 47.87 122.55 48.46 122.55 48.92C122.55 49.84 122.26 50.58 121.68 51.14C121.12 51.7 120.26 51.98 119.1 51.98C118.5 51.98 117.9 51.97 117.3 51.95C116.72 51.93 116.14 51.9 115.56 51.86C115 51.82 114.44 51.77 113.88 51.71L113.43 47.24C114.07 47.36 114.68 47.45 115.26 47.51C115.86 47.55 116.34 47.57 116.7 47.57C117.08 47.57 117.34 47.5 117.48 47.36C117.64 47.2 117.73 46.93 117.75 46.55C117.75 46.41 117.75 46.07 117.75 45.53C117.77 44.99 117.78 44.34 117.78 43.58C117.78 42.8 117.78 41.98 117.78 41.12C117.78 40.24 117.78 39.4 117.78 38.6C117.78 37.8 117.78 37.1 117.78 36.5C117.78 35.9 117.78 35.48 117.78 35.24C117.78 34.88 117.78 34.32 117.78 33.56C117.78 32.8 117.78 31.99 117.78 31.13C117.78 30.27 117.78 29.52 117.78 28.88C117.78 28.46 117.75 27.95 117.69 27.35C117.63 26.73 117.57 26.28 117.51 26H122.88ZM107.49 30.65C107.95 30.71 108.46 30.77 109.02 30.83C109.6 30.87 110.12 30.89 110.58 30.89C110.84 30.89 111.33 30.89 112.05 30.89C112.77 30.89 113.63 30.89 114.63 30.89C115.63 30.89 116.71 30.89 117.87 30.89C119.03 30.89 120.19 30.89 121.35 30.89C122.53 30.89 123.63 30.89 124.65 30.89C125.69 30.89 126.59 30.89 127.35 30.89C128.11 30.89 128.66 30.89 129 30.89C129.46 30.89 130.01 30.87 130.65 30.83C131.29 30.79 131.82 30.74 132.24 30.68V35.42C131.74 35.38 131.19 35.35 130.59 35.33C129.99 35.31 129.47 35.3 129.03 35.3C128.69 35.3 128.14 35.3 127.38 35.3C126.64 35.3 125.75 35.3 124.71 35.3C123.69 35.3 122.6 35.3 121.44 35.3C120.28 35.3 119.12 35.3 117.96 35.3C116.8 35.3 115.71 35.3 114.69 35.3C113.69 35.3 112.83 35.3 112.11 35.3C111.39 35.3 110.88 35.3 110.58 35.3C110.14 35.3 109.62 35.31 109.02 35.33C108.44 35.35 107.93 35.38 107.49 35.42V30.65ZM115.56 39.38C115.2 40.06 114.77 40.8 114.27 41.6C113.79 42.38 113.27 43.17 112.71 43.97C112.17 44.75 111.64 45.48 111.12 46.16C110.62 46.82 110.17 47.37 109.77 47.81L105.84 45.14C106.34 44.66 106.85 44.11 107.37 43.49C107.89 42.87 108.4 42.22 108.9 41.54C109.4 40.86 109.86 40.17 110.28 39.47C110.72 38.77 111.1 38.09 111.42 37.43L115.56 39.38ZM128.64 37.28C129.02 37.76 129.44 38.34 129.9 39.02C130.36 39.68 130.83 40.39 131.31 41.15C131.79 41.89 132.24 42.62 132.66 43.34C133.08 44.04 133.44 44.66 133.74 45.2L129.48 47.54C129.14 46.86 128.76 46.15 128.34 45.41C127.94 44.65 127.52 43.9 127.08 43.16C126.66 42.42 126.24 41.73 125.82 41.09C125.4 40.45 125.02 39.9 124.68 39.44L128.64 37.28ZM137.58 35.6C137.98 35.62 138.49 35.65 139.11 35.69C139.75 35.73 140.4 35.76 141.06 35.78C141.72 35.8 142.29 35.81 142.77 35.81C143.39 35.81 144.08 35.81 144.84 35.81C145.62 35.81 146.44 35.81 147.3 35.81C148.16 35.81 149.03 35.81 149.91 35.81C150.81 35.81 151.69 35.81 152.55 35.81C153.41 35.81 154.23 35.81 155.01 35.81C155.79 35.81 156.49 35.81 157.11 35.81C157.75 35.81 158.28 35.81 158.7 35.81C159.38 35.81 160.05 35.78 160.71 35.72C161.39 35.66 161.95 35.62 162.39 35.6V41.33C162.01 41.31 161.45 41.28 160.71 41.24C159.99 41.18 159.32 41.15 158.7 41.15C158.28 41.15 157.75 41.15 157.11 41.15C156.47 41.15 155.76 41.15 154.98 41.15C154.2 41.15 153.38 41.15 152.52 41.15C151.66 41.15 150.78 41.15 149.88 41.15C149 41.15 148.13 41.15 147.27 41.15C146.41 41.15 145.59 41.15 144.81 41.15C144.05 41.15 143.37 41.15 142.77 41.15C141.91 41.15 140.98 41.17 139.98 41.21C139 41.25 138.2 41.29 137.58 41.33V35.6ZM182.73 25.22C182.69 25.6 182.64 26.05 182.58 26.57C182.54 27.07 182.52 27.57 182.52 28.07C182.52 28.39 182.52 28.76 182.52 29.18C182.52 29.6 182.52 30.02 182.52 30.44C182.52 30.86 182.52 31.25 182.52 31.61H177.75C177.75 31.25 177.75 30.87 177.75 30.47C177.75 30.07 177.75 29.67 177.75 29.27C177.75 28.85 177.75 28.45 177.75 28.07C177.75 27.55 177.73 27.04 177.69 26.54C177.67 26.04 177.63 25.6 177.57 25.22H182.73ZM191.19 31.97C190.75 32.41 190.28 32.9 189.78 33.44C189.3 33.98 188.88 34.45 188.52 34.85C187.94 35.49 187.28 36.18 186.54 36.92C185.82 37.64 185.04 38.37 184.2 39.11C183.38 39.83 182.52 40.51 181.62 41.15C180.54 41.93 179.3 42.68 177.9 43.4C176.5 44.1 175.04 44.75 173.52 45.35C172 45.95 170.51 46.47 169.05 46.91L166.26 42.62C169.18 42 171.64 41.22 173.64 40.28C175.64 39.32 177.27 38.44 178.53 37.64C179.23 37.18 179.86 36.73 180.42 36.29C181 35.83 181.51 35.39 181.95 34.97C182.39 34.53 182.74 34.12 183 33.74C182.72 33.74 182.3 33.74 181.74 33.74C181.2 33.74 180.59 33.74 179.91 33.74C179.23 33.74 178.53 33.74 177.81 33.74C177.11 33.74 176.43 33.74 175.77 33.74C175.13 33.74 174.56 33.74 174.06 33.74C173.58 33.74 173.24 33.74 173.04 33.74C172.68 33.74 172.24 33.75 171.72 33.77C171.2 33.77 170.69 33.78 170.19 33.8C169.71 33.82 169.31 33.85 168.99 33.89V29.18C169.61 29.26 170.29 29.32 171.03 29.36C171.79 29.38 172.43 29.39 172.95 29.39C173.17 29.39 173.58 29.39 174.18 29.39C174.8 29.39 175.52 29.39 176.34 29.39C177.18 29.39 178.06 29.39 178.98 29.39C179.9 29.39 180.79 29.39 181.65 29.39C182.53 29.39 183.29 29.39 183.93 29.39C184.59 29.39 185.07 29.39 185.37 29.39C185.89 29.39 186.39 29.36 186.87 29.3C187.35 29.24 187.79 29.16 188.19 29.06L191.19 31.97ZM182.46 38.3C182.46 38.82 182.46 39.49 182.46 40.31C182.46 41.11 182.46 41.98 182.46 42.92C182.46 43.84 182.46 44.74 182.46 45.62C182.46 46.48 182.46 47.22 182.46 47.84C182.46 48.26 182.47 48.73 182.49 49.25C182.51 49.77 182.54 50.27 182.58 50.75C182.62 51.23 182.65 51.63 182.67 51.95H177.48C177.52 51.67 177.56 51.29 177.6 50.81C177.64 50.33 177.67 49.82 177.69 49.28C177.71 48.74 177.72 48.26 177.72 47.84C177.72 47.26 177.72 46.62 177.72 45.92C177.72 45.22 177.72 44.52 177.72 43.82C177.72 43.1 177.72 42.43 177.72 41.81C177.72 41.19 177.72 40.66 177.72 40.22L182.46 38.3ZM191.1 47.15C190.24 46.43 189.42 45.8 188.64 45.26C187.86 44.7 187.09 44.19 186.33 43.73C185.57 43.25 184.78 42.77 183.96 42.29L186.93 38.81C187.85 39.29 188.66 39.73 189.36 40.13C190.08 40.53 190.81 40.96 191.55 41.42C192.29 41.88 193.15 42.45 194.13 43.13L191.1 47.15ZM202.47 26.72C202.99 27.08 203.6 27.53 204.3 28.07C205 28.59 205.72 29.16 206.46 29.78C207.22 30.38 207.93 30.98 208.59 31.58C209.27 32.16 209.83 32.69 210.27 33.17L206.55 36.98C206.15 36.54 205.64 36.03 205.02 35.45C204.4 34.85 203.73 34.24 203.01 33.62C202.29 32.98 201.58 32.38 200.88 31.82C200.18 31.26 199.56 30.79 199.02 30.41L202.47 26.72ZM198.03 46.64C199.51 46.44 200.91 46.16 202.23 45.8C203.57 45.44 204.83 45.02 206.01 44.54C207.19 44.06 208.27 43.54 209.25 42.98C211.05 41.94 212.69 40.76 214.17 39.44C215.65 38.1 216.94 36.71 218.04 35.27C219.16 33.81 220.05 32.38 220.71 30.98L223.53 36.11C222.73 37.53 221.74 38.93 220.56 40.31C219.38 41.67 218.05 42.96 216.57 44.18C215.11 45.4 213.54 46.5 211.86 47.48C210.84 48.08 209.74 48.65 208.56 49.19C207.38 49.71 206.16 50.16 204.9 50.54C203.64 50.94 202.38 51.24 201.12 51.44L198.03 46.64ZM234.03 47C234.03 46.56 234.03 45.9 234.03 45.02C234.03 44.12 234.03 43.1 234.03 41.96C234.03 40.82 234.03 39.64 234.03 38.42C234.03 37.18 234.03 35.99 234.03 34.85C234.03 33.71 234.03 32.7 234.03 31.82C234.03 30.94 234.03 30.29 234.03 29.87C234.03 29.27 234 28.61 233.94 27.89C233.88 27.17 233.79 26.53 233.67 25.97H239.34C239.28 26.53 239.21 27.14 239.13 27.8C239.07 28.46 239.04 29.15 239.04 29.87C239.04 30.29 239.04 30.94 239.04 31.82C239.04 32.7 239.04 33.71 239.04 34.85C239.04 35.99 239.04 37.17 239.04 38.39C239.04 39.61 239.04 40.8 239.04 41.96C239.04 43.1 239.04 44.12 239.04 45.02C239.04 45.9 239.04 46.56 239.04 47C239.04 47.26 239.05 47.67 239.07 48.23C239.11 48.77 239.16 49.34 239.22 49.94C239.28 50.54 239.33 51.07 239.37 51.53H233.67C233.77 50.89 233.85 50.13 233.91 49.25C233.99 48.37 234.03 47.62 234.03 47ZM237.96 33.68C238.96 33.94 240.09 34.28 241.35 34.7C242.61 35.1 243.88 35.53 245.16 35.99C246.44 36.45 247.63 36.9 248.73 37.34C249.85 37.78 250.75 38.17 251.43 38.51L249.36 43.58C248.52 43.14 247.6 42.71 246.6 42.29C245.62 41.85 244.62 41.43 243.6 41.03C242.6 40.61 241.61 40.23 240.63 39.89C239.67 39.53 238.78 39.21 237.96 38.93V33.68Z" fill="white"/>
<rect x="26" y="77" width="248" height="48" rx="22" fill="#C01542" fill-opacity="0.88"/>
<rect x="26" y="77" width="248" height="48" rx="22" stroke="#FFDFE5" stroke-width="2"/>
<path d="M121.6 95.275C123.267 95.275 124.492 95.8917 125.275 97.125C126.058 98.3417 126.45 100.075 126.45 102.325C126.45 103.692 126.242 104.917 125.825 106C125.425 107.067 124.842 107.908 124.075 108.525C123.308 109.125 122.4 109.425 121.35 109.425C120.067 109.425 119.017 108.967 118.2 108.05V114.125L114.25 114.55V95.725H117.75L117.925 97.2C118.442 96.55 119.017 96.0667 119.65 95.75C120.3 95.4333 120.95 95.275 121.6 95.275ZM120.375 98.2C119.542 98.2 118.817 98.7167 118.2 99.75V105.35C118.483 105.75 118.775 106.05 119.075 106.25C119.392 106.433 119.75 106.525 120.15 106.525C120.883 106.525 121.433 106.2 121.8 105.55C122.183 104.883 122.375 103.825 122.375 102.375C122.375 100.808 122.208 99.725 121.875 99.125C121.542 98.5083 121.042 98.2 120.375 98.2ZM139.365 95.325C140.165 95.325 140.899 95.4583 141.565 95.725L140.84 101.275H138.34V98.825C137.607 98.9583 136.957 99.3583 136.39 100.025C135.824 100.692 135.382 101.533 135.065 102.55V106.35H137.69V109H129.365V106.35H131.115V98.35H129.365V95.725H134.14L134.84 98.7C135.324 97.5667 135.932 96.725 136.665 96.175C137.399 95.6083 138.299 95.325 139.365 95.325ZM149.98 95.275C151.997 95.275 153.572 95.9167 154.705 97.2C155.855 98.4667 156.43 100.175 156.43 102.325C156.43 104.558 155.864 106.3 154.73 107.55C153.597 108.8 152.014 109.425 149.98 109.425C147.947 109.425 146.364 108.808 145.23 107.575C144.097 106.325 143.53 104.583 143.53 102.35C143.53 100.933 143.78 99.7 144.28 98.65C144.797 97.5833 145.539 96.7583 146.505 96.175C147.489 95.575 148.647 95.275 149.98 95.275ZM149.98 98.2C149.164 98.2 148.564 98.5333 148.18 99.2C147.797 99.85 147.605 100.9 147.605 102.35C147.605 103.817 147.797 104.883 148.18 105.55C148.564 106.2 149.164 106.525 149.98 106.525C150.797 106.525 151.397 106.192 151.78 105.525C152.164 104.858 152.355 103.792 152.355 102.325C152.355 100.892 152.164 99.85 151.78 99.2C151.397 98.5333 150.797 98.2 149.98 98.2ZM166.571 95.275C168.237 95.275 169.462 95.8917 170.246 97.125C171.029 98.3417 171.421 100.075 171.421 102.325C171.421 103.692 171.212 104.917 170.796 106C170.396 107.067 169.812 107.908 169.046 108.525C168.279 109.125 167.371 109.425 166.321 109.425C165.037 109.425 163.987 108.967 163.171 108.05V114.125L159.221 114.55V95.725H162.721L162.896 97.2C163.412 96.55 163.987 96.0667 164.621 95.75C165.271 95.4333 165.921 95.275 166.571 95.275ZM165.346 98.2C164.512 98.2 163.787 98.7167 163.171 99.75V105.35C163.454 105.75 163.746 106.05 164.046 106.25C164.362 106.433 164.721 106.525 165.121 106.525C165.854 106.525 166.404 106.2 166.771 105.55C167.154 104.883 167.346 103.825 167.346 102.375C167.346 100.808 167.179 99.725 166.846 99.125C166.512 98.5083 166.012 98.2 165.346 98.2ZM179.536 106.6C180.219 106.6 180.753 106.5 181.136 106.3C181.536 106.083 181.736 105.767 181.736 105.35C181.736 105.05 181.653 104.808 181.486 104.625C181.336 104.442 181.044 104.267 180.611 104.1C180.178 103.917 179.503 103.7 178.586 103.45C177.253 103.1 176.236 102.617 175.536 102C174.836 101.367 174.486 100.5 174.486 99.4C174.486 98.1833 174.986 97.1917 175.986 96.425C177.003 95.6583 178.419 95.275 180.236 95.275C182.336 95.275 184.128 95.8167 185.611 96.9L184.036 99.225C182.819 98.475 181.594 98.1 180.361 98.1C179.711 98.1 179.228 98.1833 178.911 98.35C178.611 98.5167 178.461 98.775 178.461 99.125C178.461 99.3583 178.536 99.5583 178.686 99.725C178.853 99.875 179.153 100.033 179.586 100.2C180.036 100.367 180.703 100.575 181.586 100.825C182.536 101.092 183.311 101.383 183.911 101.7C184.528 102.017 185.003 102.442 185.336 102.975C185.669 103.508 185.836 104.192 185.836 105.025C185.836 105.958 185.553 106.758 184.986 107.425C184.419 108.092 183.661 108.592 182.711 108.925C181.761 109.258 180.711 109.425 179.561 109.425C178.328 109.425 177.211 109.25 176.211 108.9C175.211 108.55 174.361 108.058 173.661 107.425L175.636 105.2C176.836 106.133 178.136 106.6 179.536 106.6Z" fill="white"/>
<path d="M150 151L164.434 126L135.566 126L150 151ZM150 126L147.5 126L147.5 128.5L150 128.5L152.5 128.5L152.5 126L150 126Z" fill="#FFDFE5"/>
<rect x="26" y="152" width="248" height="183" rx="22" fill="#C01542" fill-opacity="0.88"/>
<rect x="26" y="152" width="248" height="183" rx="22" stroke="#FFDFE5" stroke-width="2"/>
<path d="M135.125 169.35C134.992 169.617 134.867 169.95 134.75 170.35C134.65 170.733 134.558 171.067 134.475 171.35C134.325 171.933 134.142 172.6 133.925 173.35C133.725 174.083 133.475 174.858 133.175 175.675C132.875 176.475 132.517 177.283 132.1 178.1C131.7 178.9 131.233 179.667 130.7 180.4C129.95 181.4 129.058 182.35 128.025 183.25C127.008 184.133 125.867 184.933 124.6 185.65C123.35 186.35 121.992 186.942 120.525 187.425L117.225 183.8C118.908 183.417 120.358 182.933 121.575 182.35C122.792 181.767 123.842 181.108 124.725 180.375C125.625 179.625 126.4 178.842 127.05 178.025C127.583 177.358 128.033 176.658 128.4 175.925C128.767 175.175 129.067 174.433 129.3 173.7C129.533 172.95 129.7 172.242 129.8 171.575C129.55 171.575 129.15 171.575 128.6 171.575C128.067 171.575 127.442 171.575 126.725 171.575C126.025 171.575 125.283 171.575 124.5 171.575C123.733 171.575 122.983 171.575 122.25 171.575C121.517 171.575 120.842 171.575 120.225 171.575C119.625 171.575 119.15 171.575 118.8 171.575C118.183 171.575 117.567 171.592 116.95 171.625C116.35 171.642 115.883 171.667 115.55 171.7V167.425C115.817 167.458 116.15 167.492 116.55 167.525C116.95 167.558 117.358 167.592 117.775 167.625C118.192 167.642 118.533 167.65 118.8 167.65C119.1 167.65 119.492 167.65 119.975 167.65C120.475 167.65 121.025 167.65 121.625 167.65C122.242 167.65 122.875 167.65 123.525 167.65C124.192 167.65 124.85 167.65 125.5 167.65C126.15 167.65 126.758 167.65 127.325 167.65C127.908 167.65 128.417 167.65 128.85 167.65C129.283 167.65 129.608 167.65 129.825 167.65C130.108 167.65 130.467 167.642 130.9 167.625C131.333 167.592 131.742 167.525 132.125 167.425L135.125 169.35ZM150.425 170.9C150.558 171.167 150.717 171.55 150.9 172.05C151.1 172.55 151.308 173.083 151.525 173.65C151.742 174.2 151.933 174.725 152.1 175.225C152.283 175.725 152.425 176.125 152.525 176.425L148.9 177.675C148.817 177.358 148.692 176.958 148.525 176.475C148.358 175.992 148.175 175.483 147.975 174.95C147.775 174.4 147.575 173.875 147.375 173.375C147.175 172.858 146.992 172.425 146.825 172.075L150.425 170.9ZM159.75 172.95C159.583 173.433 159.442 173.842 159.325 174.175C159.225 174.508 159.133 174.825 159.05 175.125C158.733 176.325 158.3 177.542 157.75 178.775C157.217 179.992 156.533 181.142 155.7 182.225C154.533 183.742 153.2 185.033 151.7 186.1C150.217 187.183 148.725 188.017 147.225 188.6L144.05 185.35C144.933 185.117 145.892 184.758 146.925 184.275C147.958 183.792 148.958 183.2 149.925 182.5C150.908 181.8 151.742 181.017 152.425 180.15C152.975 179.45 153.467 178.633 153.9 177.7C154.333 176.767 154.683 175.775 154.95 174.725C155.233 173.658 155.408 172.608 155.475 171.575L159.75 172.95ZM144.625 172.25C144.808 172.6 145.008 173.025 145.225 173.525C145.442 174.025 145.658 174.55 145.875 175.1C146.092 175.65 146.3 176.183 146.5 176.7C146.7 177.2 146.858 177.633 146.975 178L143.275 179.375C143.175 179.042 143.025 178.608 142.825 178.075C142.642 177.542 142.433 176.983 142.2 176.4C141.983 175.817 141.767 175.275 141.55 174.775C141.333 174.258 141.142 173.85 140.975 173.55L144.625 172.25ZM185.375 170.5C185.208 170.767 185.033 171.083 184.85 171.45C184.683 171.8 184.533 172.167 184.4 172.55C184.183 173.233 183.883 174.033 183.5 174.95C183.117 175.867 182.642 176.825 182.075 177.825C181.508 178.825 180.842 179.8 180.075 180.75C178.858 182.233 177.45 183.567 175.85 184.75C174.25 185.917 172.275 186.983 169.925 187.95L166.325 184.75C168.125 184.2 169.642 183.6 170.875 182.95C172.125 182.3 173.192 181.617 174.075 180.9C174.958 180.167 175.75 179.4 176.45 178.6C176.983 178.017 177.475 177.342 177.925 176.575C178.392 175.808 178.783 175.05 179.1 174.3C179.433 173.533 179.65 172.883 179.75 172.35H171.8L173.15 168.925C173.383 168.925 173.733 168.925 174.2 168.925C174.667 168.925 175.183 168.925 175.75 168.925C176.333 168.925 176.9 168.925 177.45 168.925C178.017 168.925 178.508 168.925 178.925 168.925C179.358 168.925 179.658 168.925 179.825 168.925C180.242 168.925 180.675 168.9 181.125 168.85C181.592 168.783 181.983 168.7 182.3 168.6L185.375 170.5ZM177.35 166.45C177 166.95 176.658 167.483 176.325 168.05C175.992 168.617 175.742 169.042 175.575 169.325C174.975 170.375 174.233 171.45 173.35 172.55C172.483 173.633 171.525 174.675 170.475 175.675C169.425 176.658 168.342 177.542 167.225 178.325L163.825 175.8C164.925 175.117 165.892 174.425 166.725 173.725C167.558 173.025 168.275 172.333 168.875 171.65C169.475 170.967 169.992 170.317 170.425 169.7C170.875 169.067 171.267 168.492 171.6 167.975C171.833 167.625 172.075 167.167 172.325 166.6C172.592 166.017 172.792 165.483 172.925 165L177.35 166.45Z" fill="white"/>
<path d="M63 211.85C63.5 211.85 63.95 211.967 64.35 212.2C64.75 212.433 65.0667 212.75 65.3 213.15C65.5333 213.55 65.65 214 65.65 214.5C65.65 214.983 65.5333 215.433 65.3 215.85C65.0667 216.25 64.75 216.567 64.35 216.8C63.95 217.033 63.5 217.15 63 217.15C62.5167 217.15 62.0667 217.033 61.65 216.8C61.25 216.567 60.9333 216.25 60.7 215.85C60.4667 215.433 60.35 214.983 60.35 214.5C60.35 214 60.4667 213.55 60.7 213.15C60.9333 212.75 61.25 212.433 61.65 212.2C62.0667 211.967 62.5167 211.85 63 211.85ZM80.525 220.025C80.525 220.792 80.675 221.35 80.975 221.7C81.2917 222.033 81.7667 222.2 82.4 222.2C83 222.2 83.575 222.025 84.125 221.675C84.6917 221.325 85.1417 220.883 85.475 220.35V210.8H88.275V224H85.85L85.675 222.3C85.2083 222.95 84.6 223.45 83.85 223.8C83.1 224.15 82.325 224.325 81.525 224.325C80.2583 224.325 79.3083 223.983 78.675 223.3C78.0417 222.617 77.725 221.642 77.725 220.375V210.8H80.525V220.025ZM97.5152 222.2C98.3986 222.2 99.0902 222.042 99.5902 221.725C100.107 221.408 100.365 220.975 100.365 220.425C100.365 220.042 100.29 219.733 100.14 219.5C99.9902 219.25 99.6902 219.025 99.2402 218.825C98.7902 218.608 98.1152 218.383 97.2152 218.15C95.7652 217.783 94.6736 217.317 93.9402 216.75C93.2236 216.167 92.8652 215.333 92.8652 214.25C92.8652 213.1 93.3402 212.183 94.2902 211.5C95.2402 210.8 96.5236 210.45 98.1402 210.45C100.09 210.45 101.765 210.958 103.165 211.975L101.965 213.75C100.782 212.967 99.5319 212.575 98.2152 212.575C96.5486 212.575 95.7152 213.058 95.7152 214.025C95.7152 214.358 95.8069 214.633 95.9902 214.85C96.1902 215.067 96.5236 215.275 96.9902 215.475C97.4569 215.658 98.1486 215.875 99.0652 216.125C100.499 216.525 101.565 217.017 102.265 217.6C102.982 218.183 103.34 219.058 103.34 220.225C103.34 221.575 102.782 222.6 101.665 223.3C100.549 223.983 99.1652 224.325 97.5152 224.325C95.3319 224.325 93.5236 223.708 92.0902 222.475L93.5652 220.775C94.1152 221.208 94.7236 221.558 95.3902 221.825C96.0736 222.075 96.7819 222.2 97.5152 222.2ZM110.03 218.3C110.114 219.583 110.48 220.55 111.13 221.2C111.797 221.833 112.63 222.15 113.63 222.15C114.247 222.15 114.83 222.058 115.38 221.875C115.947 221.675 116.522 221.383 117.105 221L118.305 222.7C117.689 223.217 116.964 223.617 116.13 223.9C115.297 224.183 114.422 224.325 113.505 224.325C111.489 224.325 109.922 223.7 108.805 222.45C107.689 221.183 107.13 219.5 107.13 217.4C107.13 216.083 107.372 214.9 107.855 213.85C108.339 212.783 109.039 211.95 109.955 211.35C110.872 210.75 111.939 210.45 113.155 210.45C114.905 210.45 116.289 211.042 117.305 212.225C118.339 213.392 118.855 215 118.855 217.05C118.855 217.55 118.83 217.967 118.78 218.3H110.03ZM113.18 212.525C112.28 212.525 111.547 212.85 110.98 213.5C110.414 214.15 110.089 215.117 110.005 216.4H116.13C116.097 215.15 115.83 214.192 115.33 213.525C114.83 212.858 114.114 212.525 113.18 212.525ZM134.196 219.125C134.196 220.158 133.929 221.067 133.396 221.85C132.879 222.633 132.121 223.242 131.121 223.675C130.137 224.108 128.962 224.325 127.596 224.325C124.929 224.325 122.812 223.558 121.246 222.025L122.846 220.25C124.146 221.45 125.729 222.05 127.596 222.05C128.629 222.05 129.479 221.808 130.146 221.325C130.829 220.842 131.171 220.158 131.171 219.275C131.171 218.758 131.062 218.325 130.846 217.975C130.646 217.625 130.296 217.317 129.796 217.05C129.296 216.767 128.579 216.483 127.646 216.2C125.729 215.633 124.321 214.958 123.421 214.175C122.521 213.392 122.071 212.358 122.071 211.075C122.071 210.158 122.321 209.35 122.821 208.65C123.337 207.933 124.046 207.383 124.946 207C125.846 206.6 126.862 206.4 127.996 206.4C130.312 206.4 132.237 207.092 133.771 208.475L132.246 210.2C131.062 209.183 129.704 208.675 128.171 208.675C127.237 208.675 126.479 208.867 125.896 209.25C125.329 209.633 125.046 210.183 125.046 210.9C125.046 211.35 125.162 211.733 125.396 212.05C125.646 212.367 126.054 212.658 126.621 212.925C127.204 213.175 128.021 213.458 129.071 213.775C130.737 214.275 132.004 214.917 132.871 215.7C133.754 216.483 134.196 217.625 134.196 219.125ZM148.711 223.3C148.211 223.617 147.628 223.867 146.961 224.05C146.294 224.233 145.594 224.325 144.861 224.325C143.361 224.325 142.203 223.942 141.386 223.175C140.569 222.392 140.161 221.333 140.161 220V212.85H137.236V210.8H140.161V207.85L142.961 207.525V210.8H147.436L147.111 212.85H142.961V219.975C142.961 220.692 143.144 221.225 143.511 221.575C143.878 221.908 144.461 222.075 145.261 222.075C146.144 222.075 146.961 221.867 147.711 221.45L148.711 223.3ZM162.776 220.775C162.776 221.275 162.851 221.65 163.001 221.9C163.151 222.133 163.41 222.308 163.776 222.425L163.126 224.325C161.743 224.158 160.835 223.55 160.401 222.5C159.918 223.1 159.31 223.558 158.576 223.875C157.86 224.175 157.068 224.325 156.201 224.325C154.868 224.325 153.81 223.95 153.026 223.2C152.243 222.45 151.851 221.458 151.851 220.225C151.851 218.842 152.393 217.775 153.476 217.025C154.576 216.275 156.126 215.9 158.126 215.9H160.001V215.05C160.001 214.217 159.751 213.608 159.251 213.225C158.751 212.842 158.026 212.65 157.076 212.65C156.61 212.65 156.068 212.708 155.451 212.825C154.835 212.942 154.21 213.108 153.576 213.325L152.876 211.35C154.46 210.75 156.001 210.45 157.501 210.45C159.251 210.45 160.568 210.833 161.451 211.6C162.335 212.367 162.776 213.458 162.776 214.875V220.775ZM157.026 222.275C157.61 222.275 158.168 222.125 158.701 221.825C159.251 221.525 159.685 221.108 160.001 220.575V217.65H158.451C157.185 217.65 156.26 217.867 155.676 218.3C155.093 218.717 154.801 219.325 154.801 220.125C154.801 220.825 154.985 221.358 155.351 221.725C155.735 222.092 156.293 222.275 157.026 222.275ZM178.691 223.3C178.191 223.617 177.608 223.867 176.941 224.05C176.275 224.233 175.575 224.325 174.841 224.325C173.341 224.325 172.183 223.942 171.366 223.175C170.55 222.392 170.141 221.333 170.141 220V212.85H167.216V210.8H170.141V207.85L172.941 207.525V210.8H177.416L177.091 212.85H172.941V219.975C172.941 220.692 173.125 221.225 173.491 221.575C173.858 221.908 174.441 222.075 175.241 222.075C176.125 222.075 176.941 221.867 177.691 221.45L178.691 223.3ZM184.982 218.3C185.065 219.583 185.432 220.55 186.082 221.2C186.748 221.833 187.582 222.15 188.582 222.15C189.198 222.15 189.782 222.058 190.332 221.875C190.898 221.675 191.473 221.383 192.057 221L193.257 222.7C192.64 223.217 191.915 223.617 191.082 223.9C190.248 224.183 189.373 224.325 188.457 224.325C186.44 224.325 184.873 223.7 183.757 222.45C182.64 221.183 182.082 219.5 182.082 217.4C182.082 216.083 182.323 214.9 182.807 213.85C183.29 212.783 183.99 211.95 184.907 211.35C185.823 210.75 186.89 210.45 188.107 210.45C189.857 210.45 191.24 211.042 192.257 212.225C193.29 213.392 193.807 215 193.807 217.05C193.807 217.55 193.782 217.967 193.732 218.3H184.982ZM188.132 212.525C187.232 212.525 186.498 212.85 185.932 213.5C185.365 214.15 185.04 215.117 184.957 216.4H191.082C191.048 215.15 190.782 214.192 190.282 213.525C189.782 212.858 189.065 212.525 188.132 212.525ZM63 241.85C63.5 241.85 63.95 241.967 64.35 242.2C64.75 242.433 65.0667 242.75 65.3 243.15C65.5333 243.55 65.65 244 65.65 244.5C65.65 244.983 65.5333 245.433 65.3 245.85C65.0667 246.25 64.75 246.567 64.35 246.8C63.95 247.033 63.5 247.15 63 247.15C62.5167 247.15 62.0667 247.033 61.65 246.8C61.25 246.567 60.9333 246.25 60.7 245.85C60.4667 245.433 60.35 244.983 60.35 244.5C60.35 244 60.4667 243.55 60.7 243.15C60.9333 242.75 61.25 242.433 61.65 242.2C62.0667 241.967 62.5167 241.85 63 241.85ZM80.525 250.025C80.525 250.792 80.675 251.35 80.975 251.7C81.2917 252.033 81.7667 252.2 82.4 252.2C83 252.2 83.575 252.025 84.125 251.675C84.6917 251.325 85.1417 250.883 85.475 250.35V240.8H88.275V254H85.85L85.675 252.3C85.2083 252.95 84.6 253.45 83.85 253.8C83.1 254.15 82.325 254.325 81.525 254.325C80.2583 254.325 79.3083 253.983 78.675 253.3C78.0417 252.617 77.725 251.642 77.725 250.375V240.8H80.525V250.025ZM97.5152 252.2C98.3986 252.2 99.0902 252.042 99.5902 251.725C100.107 251.408 100.365 250.975 100.365 250.425C100.365 250.042 100.29 249.733 100.14 249.5C99.9902 249.25 99.6902 249.025 99.2402 248.825C98.7902 248.608 98.1152 248.383 97.2152 248.15C95.7652 247.783 94.6736 247.317 93.9402 246.75C93.2236 246.167 92.8652 245.333 92.8652 244.25C92.8652 243.1 93.3402 242.183 94.2902 241.5C95.2402 240.8 96.5236 240.45 98.1402 240.45C100.09 240.45 101.765 240.958 103.165 241.975L101.965 243.75C100.782 242.967 99.5319 242.575 98.2152 242.575C96.5486 242.575 95.7152 243.058 95.7152 244.025C95.7152 244.358 95.8069 244.633 95.9902 244.85C96.1902 245.067 96.5236 245.275 96.9902 245.475C97.4569 245.658 98.1486 245.875 99.0652 246.125C100.499 246.525 101.565 247.017 102.265 247.6C102.982 248.183 103.34 249.058 103.34 250.225C103.34 251.575 102.782 252.6 101.665 253.3C100.549 253.983 99.1652 254.325 97.5152 254.325C95.3319 254.325 93.5236 253.708 92.0902 252.475L93.5652 250.775C94.1152 251.208 94.7236 251.558 95.3902 251.825C96.0736 252.075 96.7819 252.2 97.5152 252.2ZM110.03 248.3C110.114 249.583 110.48 250.55 111.13 251.2C111.797 251.833 112.63 252.15 113.63 252.15C114.247 252.15 114.83 252.058 115.38 251.875C115.947 251.675 116.522 251.383 117.105 251L118.305 252.7C117.689 253.217 116.964 253.617 116.13 253.9C115.297 254.183 114.422 254.325 113.505 254.325C111.489 254.325 109.922 253.7 108.805 252.45C107.689 251.183 107.13 249.5 107.13 247.4C107.13 246.083 107.372 244.9 107.855 243.85C108.339 242.783 109.039 241.95 109.955 241.35C110.872 240.75 111.939 240.45 113.155 240.45C114.905 240.45 116.289 241.042 117.305 242.225C118.339 243.392 118.855 245 118.855 247.05C118.855 247.55 118.83 247.967 118.78 248.3H110.03ZM113.18 242.525C112.28 242.525 111.547 242.85 110.98 243.5C110.414 244.15 110.089 245.117 110.005 246.4H116.13C116.097 245.15 115.83 244.192 115.33 243.525C114.83 242.858 114.114 242.525 113.18 242.525ZM126.196 244.15H132.446V246.325H126.196V251.8H133.821V254H123.296V236.75H133.671L133.346 238.95H126.196V244.15ZM145.711 235.175C147.144 235.175 148.461 235.433 149.661 235.95L148.811 237.9C147.961 237.533 147.019 237.35 145.986 237.35C145.119 237.35 144.478 237.517 144.061 237.85C143.644 238.183 143.436 238.7 143.436 239.4V241.75H147.861L147.536 243.825H143.436V254H140.636V243.825H137.636V241.75H140.636V239.375C140.636 238.542 140.844 237.808 141.261 237.175C141.694 236.542 142.294 236.05 143.061 235.7C143.828 235.35 144.711 235.175 145.711 235.175ZM160.701 235.175C162.135 235.175 163.451 235.433 164.651 235.95L163.801 237.9C162.951 237.533 162.01 237.35 160.976 237.35C160.11 237.35 159.468 237.517 159.051 237.85C158.635 238.183 158.426 238.7 158.426 239.4V241.75H162.851L162.526 243.825H158.426V254H155.626V243.825H152.626V241.75H155.626V239.375C155.626 238.542 155.835 237.808 156.251 237.175C156.685 236.542 157.285 236.05 158.051 235.7C158.818 235.35 159.701 235.175 160.701 235.175ZM169.991 248.3C170.075 249.583 170.441 250.55 171.091 251.2C171.758 251.833 172.591 252.15 173.591 252.15C174.208 252.15 174.791 252.058 175.341 251.875C175.908 251.675 176.483 251.383 177.066 251L178.266 252.7C177.65 253.217 176.925 253.617 176.091 253.9C175.258 254.183 174.383 254.325 173.466 254.325C171.45 254.325 169.883 253.7 168.766 252.45C167.65 251.183 167.091 249.5 167.091 247.4C167.091 246.083 167.333 244.9 167.816 243.85C168.3 242.783 169 241.95 169.916 241.35C170.833 240.75 171.9 240.45 173.116 240.45C174.866 240.45 176.25 241.042 177.266 242.225C178.3 243.392 178.816 245 178.816 247.05C178.816 247.55 178.791 247.967 178.741 248.3H169.991ZM173.141 242.525C172.241 242.525 171.508 242.85 170.941 243.5C170.375 244.15 170.05 245.117 169.966 246.4H176.091C176.058 245.15 175.791 244.192 175.291 243.525C174.791 242.858 174.075 242.525 173.141 242.525ZM189.032 252.025C190.082 252.025 191.165 251.65 192.282 250.9L193.557 252.7C192.973 253.2 192.273 253.6 191.457 253.9C190.64 254.183 189.798 254.325 188.932 254.325C186.915 254.325 185.34 253.708 184.207 252.475C183.073 251.225 182.507 249.558 182.507 247.475C182.507 246.125 182.765 244.925 183.282 243.875C183.798 242.808 184.54 241.975 185.507 241.375C186.49 240.758 187.648 240.45 188.982 240.45C190.732 240.45 192.257 240.983 193.557 242.05L192.257 243.8C191.19 243.067 190.115 242.7 189.032 242.7C187.932 242.7 187.065 243.1 186.432 243.9C185.798 244.683 185.482 245.875 185.482 247.475C185.482 249.042 185.798 250.192 186.432 250.925C187.065 251.658 187.932 252.025 189.032 252.025ZM208.672 253.3C208.172 253.617 207.589 253.867 206.922 254.05C206.255 254.233 205.555 254.325 204.822 254.325C203.322 254.325 202.164 253.942 201.347 253.175C200.53 252.392 200.122 251.333 200.122 250V242.85H197.197V240.8H200.122V237.85L202.922 237.525V240.8H207.397L207.072 242.85H202.922V249.975C202.922 250.692 203.105 251.225 203.472 251.575C203.839 251.908 204.422 252.075 205.222 252.075C206.105 252.075 206.922 251.867 207.672 251.45L208.672 253.3ZM63 271.85C63.5 271.85 63.95 271.967 64.35 272.2C64.75 272.433 65.0667 272.75 65.3 273.15C65.5333 273.55 65.65 274 65.65 274.5C65.65 274.983 65.5333 275.433 65.3 275.85C65.0667 276.25 64.75 276.567 64.35 276.8C63.95 277.033 63.5 277.15 63 277.15C62.5167 277.15 62.0667 277.033 61.65 276.8C61.25 276.567 60.9333 276.25 60.7 275.85C60.4667 275.433 60.35 274.983 60.35 274.5C60.35 274 60.4667 273.55 60.7 273.15C60.9333 272.75 61.25 272.433 61.65 272.2C62.0667 271.967 62.5167 271.85 63 271.85ZM88.45 264.175C88.4333 264.458 88.4083 264.808 88.375 265.225C88.3583 265.625 88.3417 265.975 88.325 266.275C88.2417 268.808 88.0167 271.033 87.65 272.95C87.2833 274.85 86.7667 276.533 86.1 278C85.45 279.45 84.6333 280.733 83.65 281.85C82.6833 282.95 81.55 283.958 80.25 284.875L77.95 283C78.4 282.767 78.8833 282.467 79.4 282.1C79.9167 281.733 80.3917 281.333 80.825 280.9C81.625 280.15 82.325 279.308 82.925 278.375C83.525 277.442 84.025 276.4 84.425 275.25C84.8417 274.083 85.1583 272.767 85.375 271.3C85.5917 269.817 85.7 268.158 85.7 266.325C85.7 266.142 85.6917 265.917 85.675 265.65C85.675 265.383 85.6583 265.117 85.625 264.85C85.5917 264.583 85.5583 264.358 85.525 264.175H88.45ZM97.075 269.425C97.0417 269.642 97.0083 269.867 96.975 270.1C96.9417 270.333 96.9167 270.533 96.9 270.7C96.8833 271.2 96.8583 271.858 96.825 272.675C96.7917 273.492 96.7333 274.383 96.65 275.35C96.5833 276.317 96.4917 277.275 96.375 278.225C96.2583 279.175 96.125 280.058 95.975 280.875C95.825 281.675 95.6333 282.325 95.4 282.825C95.15 283.408 94.7917 283.833 94.325 284.1C93.875 284.383 93.2667 284.525 92.5 284.525C91.8333 284.525 91.1417 284.508 90.425 284.475C89.725 284.442 89.0583 284.4 88.425 284.35L88.125 281.725C88.775 281.808 89.4083 281.883 90.025 281.95C90.6583 282 91.2333 282.025 91.75 282.025C92.1333 282.025 92.4333 281.967 92.65 281.85C92.8667 281.717 93.0417 281.492 93.175 281.175C93.3417 280.825 93.4917 280.342 93.625 279.725C93.7583 279.092 93.8667 278.4 93.95 277.65C94.05 276.883 94.125 276.1 94.175 275.3C94.2417 274.483 94.2833 273.717 94.3 273C94.3333 272.267 94.35 271.625 94.35 271.075H81.6C81.1333 271.075 80.625 271.083 80.075 271.1C79.5417 271.117 79.0333 271.142 78.55 271.175V268.575C79.0333 268.608 79.5417 268.642 80.075 268.675C80.6083 268.708 81.1167 268.725 81.6 268.725H93.6C93.9333 268.725 94.2417 268.717 94.525 268.7C94.8083 268.667 95.075 268.625 95.325 268.575L97.075 269.425ZM120.875 267.175C120.775 267.292 120.65 267.483 120.5 267.75C120.35 268.017 120.233 268.258 120.15 268.475C119.8 269.275 119.367 270.167 118.85 271.15C118.35 272.133 117.775 273.117 117.125 274.1C116.492 275.067 115.825 275.95 115.125 276.75C114.208 277.8 113.192 278.825 112.075 279.825C110.975 280.825 109.808 281.75 108.575 282.6C107.342 283.433 106.067 284.158 104.75 284.775L102.725 282.65C104.075 282.117 105.375 281.458 106.625 280.675C107.892 279.892 109.067 279.033 110.15 278.1C111.233 277.167 112.183 276.242 113 275.325C113.567 274.692 114.117 273.992 114.65 273.225C115.183 272.442 115.658 271.658 116.075 270.875C116.492 270.092 116.792 269.375 116.975 268.725C116.825 268.725 116.517 268.725 116.05 268.725C115.583 268.725 115.025 268.725 114.375 268.725C113.742 268.725 113.075 268.725 112.375 268.725C111.692 268.725 111.025 268.725 110.375 268.725C109.742 268.725 109.192 268.725 108.725 268.725C108.258 268.725 107.95 268.725 107.8 268.725C107.483 268.725 107.133 268.742 106.75 268.775C106.383 268.792 106.042 268.817 105.725 268.85C105.425 268.867 105.208 268.875 105.075 268.875V266.05C105.242 266.067 105.492 266.092 105.825 266.125C106.158 266.142 106.508 266.167 106.875 266.2C107.242 266.217 107.55 266.225 107.8 266.225C107.983 266.225 108.308 266.225 108.775 266.225C109.258 266.225 109.817 266.225 110.45 266.225C111.1 266.225 111.775 266.225 112.475 266.225C113.175 266.225 113.842 266.225 114.475 266.225C115.108 266.225 115.658 266.225 116.125 266.225C116.592 266.225 116.908 266.225 117.075 266.225C117.542 266.225 117.967 266.2 118.35 266.15C118.733 266.1 119.033 266.042 119.25 265.975L120.875 267.175ZM115.45 275.1C116.117 275.65 116.817 276.267 117.55 276.95C118.283 277.633 119 278.342 119.7 279.075C120.4 279.792 121.05 280.483 121.65 281.15C122.267 281.817 122.783 282.408 123.2 282.925L121 284.875C120.383 284.042 119.675 283.167 118.875 282.25C118.075 281.333 117.225 280.417 116.325 279.5C115.425 278.567 114.525 277.7 113.625 276.9L115.45 275.1ZM136.025 272.425C136.808 272.892 137.65 273.417 138.55 274C139.45 274.567 140.35 275.167 141.25 275.8C142.15 276.417 143 277.017 143.8 277.6C144.617 278.183 145.317 278.725 145.9 279.225L144.05 281.425C143.483 280.908 142.8 280.333 142 279.7C141.217 279.067 140.367 278.417 139.45 277.75C138.55 277.083 137.65 276.45 136.75 275.85C135.867 275.233 135.05 274.683 134.3 274.2L136.025 272.425ZM147.6 268C147.483 268.2 147.358 268.45 147.225 268.75C147.108 269.033 147.008 269.3 146.925 269.55C146.675 270.35 146.333 271.233 145.9 272.2C145.483 273.167 144.975 274.15 144.375 275.15C143.792 276.133 143.133 277.083 142.4 278C141.25 279.417 139.833 280.775 138.15 282.075C136.483 283.358 134.467 284.45 132.1 285.35L129.825 283.35C131.458 282.85 132.908 282.242 134.175 281.525C135.458 280.808 136.592 280.033 137.575 279.2C138.558 278.35 139.417 277.492 140.15 276.625C140.767 275.892 141.333 275.092 141.85 274.225C142.383 273.358 142.842 272.492 143.225 271.625C143.625 270.758 143.908 269.975 144.075 269.275H135.15L136.1 267.025H143.7C144.05 267.025 144.392 267 144.725 266.95C145.058 266.9 145.342 266.833 145.575 266.75L147.6 268ZM139.25 264.3C139 264.667 138.75 265.067 138.5 265.5C138.267 265.933 138.083 266.275 137.95 266.525C137.417 267.458 136.733 268.483 135.9 269.6C135.083 270.717 134.142 271.817 133.075 272.9C132.008 273.967 130.842 274.942 129.575 275.825L127.45 274.175C128.9 273.275 130.142 272.308 131.175 271.275C132.225 270.242 133.1 269.233 133.8 268.25C134.5 267.267 135.05 266.4 135.45 265.65C135.6 265.4 135.767 265.058 135.95 264.625C136.15 264.175 136.3 263.767 136.4 263.4L139.25 264.3ZM163.9 265.275C163.767 265.608 163.617 265.975 163.45 266.375C163.3 266.775 163.133 267.25 162.95 267.8C162.817 268.233 162.633 268.817 162.4 269.55C162.167 270.283 161.9 271.1 161.6 272C161.317 272.883 161.017 273.8 160.7 274.75C160.383 275.683 160.075 276.592 159.775 277.475C159.475 278.358 159.192 279.158 158.925 279.875C158.675 280.592 158.458 281.158 158.275 281.575L155.375 281.675C155.592 281.175 155.842 280.542 156.125 279.775C156.425 278.992 156.733 278.142 157.05 277.225C157.367 276.292 157.683 275.342 158 274.375C158.333 273.392 158.642 272.45 158.925 271.55C159.208 270.633 159.467 269.8 159.7 269.05C159.933 268.3 160.108 267.692 160.225 267.225C160.392 266.625 160.508 266.133 160.575 265.75C160.658 265.367 160.725 264.992 160.775 264.625L163.9 265.275ZM168.55 273.5C168.983 274.167 169.458 274.95 169.975 275.85C170.508 276.733 171.033 277.658 171.55 278.625C172.067 279.592 172.542 280.525 172.975 281.425C173.425 282.325 173.783 283.108 174.05 283.775L171.4 284.975C171.133 284.258 170.792 283.433 170.375 282.5C169.975 281.55 169.525 280.575 169.025 279.575C168.542 278.575 168.05 277.633 167.55 276.75C167.05 275.867 166.575 275.133 166.125 274.55L168.55 273.5ZM154.725 280.85C155.308 280.833 156.017 280.792 156.85 280.725C157.7 280.658 158.608 280.575 159.575 280.475C160.542 280.375 161.533 280.275 162.55 280.175C163.567 280.075 164.55 279.967 165.5 279.85C166.467 279.733 167.358 279.625 168.175 279.525C168.992 279.425 169.675 279.333 170.225 279.25L170.875 281.75C170.275 281.817 169.542 281.9 168.675 282C167.825 282.1 166.9 282.208 165.9 282.325C164.9 282.442 163.875 282.558 162.825 282.675C161.775 282.792 160.75 282.908 159.75 283.025C158.767 283.125 157.85 283.217 157 283.3C156.167 283.383 155.458 283.45 154.875 283.5C154.558 283.533 154.208 283.583 153.825 283.65C153.442 283.7 153.058 283.75 152.675 283.8L152.225 280.9C152.625 280.9 153.05 280.9 153.5 280.9C153.95 280.883 154.358 280.867 154.725 280.85ZM195.836 267.375C195.752 267.575 195.669 267.808 195.586 268.075C195.519 268.325 195.452 268.575 195.386 268.825C195.252 269.458 195.077 270.167 194.861 270.95C194.644 271.733 194.377 272.542 194.061 273.375C193.761 274.208 193.411 275.025 193.011 275.825C192.611 276.608 192.161 277.333 191.661 278C190.894 278.983 190.027 279.9 189.061 280.75C188.111 281.6 187.027 282.367 185.811 283.05C184.594 283.717 183.227 284.292 181.711 284.775L179.561 282.425C181.211 282.025 182.636 281.533 183.836 280.95C185.036 280.35 186.077 279.675 186.961 278.925C187.861 278.158 188.652 277.342 189.336 276.475C189.919 275.742 190.419 274.925 190.836 274.025C191.252 273.125 191.602 272.225 191.886 271.325C192.169 270.408 192.361 269.567 192.461 268.8C192.227 268.8 191.794 268.8 191.161 268.8C190.544 268.8 189.819 268.8 188.986 268.8C188.152 268.8 187.277 268.8 186.361 268.8C185.461 268.8 184.586 268.8 183.736 268.8C182.902 268.8 182.169 268.8 181.536 268.8C180.902 268.8 180.452 268.8 180.186 268.8C179.652 268.8 179.144 268.808 178.661 268.825C178.194 268.842 177.802 268.867 177.486 268.9V266.1C177.719 266.133 177.994 266.167 178.311 266.2C178.627 266.217 178.952 266.242 179.286 266.275C179.619 266.292 179.919 266.3 180.186 266.3C180.419 266.3 180.786 266.3 181.286 266.3C181.802 266.3 182.394 266.3 183.061 266.3C183.744 266.3 184.469 266.3 185.236 266.3C186.002 266.3 186.761 266.3 187.511 266.3C188.277 266.3 188.986 266.3 189.636 266.3C190.302 266.3 190.869 266.3 191.336 266.3C191.802 266.3 192.127 266.3 192.311 266.3C192.527 266.3 192.777 266.292 193.061 266.275C193.361 266.242 193.644 266.192 193.911 266.125L195.836 267.375ZM211.336 269.4C211.452 269.65 211.602 270.025 211.786 270.525C211.969 271.008 212.161 271.533 212.361 272.1C212.577 272.65 212.769 273.175 212.936 273.675C213.119 274.175 213.252 274.558 213.336 274.825L210.986 275.675C210.919 275.375 210.802 274.983 210.636 274.5C210.469 274 210.286 273.483 210.086 272.95C209.886 272.4 209.686 271.875 209.486 271.375C209.302 270.875 209.136 270.475 208.986 270.175L211.336 269.4ZM220.461 271C220.344 271.317 220.244 271.592 220.161 271.825C220.094 272.058 220.036 272.275 219.986 272.475C219.652 273.808 219.202 275.117 218.636 276.4C218.086 277.683 217.369 278.892 216.486 280.025C215.336 281.492 214.027 282.733 212.561 283.75C211.111 284.75 209.677 285.525 208.261 286.075L206.186 283.95C207.119 283.683 208.086 283.3 209.086 282.8C210.086 282.3 211.044 281.7 211.961 281C212.894 280.3 213.702 279.525 214.386 278.675C214.952 277.958 215.469 277.142 215.936 276.225C216.402 275.292 216.786 274.308 217.086 273.275C217.386 272.225 217.594 271.175 217.711 270.125L220.461 271ZM205.511 270.7C205.661 270.983 205.836 271.375 206.036 271.875C206.252 272.358 206.469 272.883 206.686 273.45C206.919 274.017 207.136 274.558 207.336 275.075C207.536 275.592 207.694 276.025 207.811 276.375L205.436 277.25C205.336 276.933 205.186 276.508 204.986 275.975C204.786 275.425 204.569 274.858 204.336 274.275C204.119 273.692 203.902 273.158 203.686 272.675C203.486 272.175 203.311 271.8 203.161 271.55L205.511 270.7ZM246.111 268.4C245.977 268.6 245.852 268.842 245.736 269.125C245.619 269.408 245.511 269.675 245.411 269.925C245.194 270.725 244.886 271.608 244.486 272.575C244.086 273.542 243.594 274.533 243.011 275.55C242.427 276.55 241.761 277.508 241.011 278.425C239.861 279.842 238.486 281.125 236.886 282.275C235.302 283.425 233.344 284.45 231.011 285.35L228.686 283.275C230.302 282.792 231.719 282.233 232.936 281.6C234.169 280.95 235.252 280.242 236.186 279.475C237.136 278.708 237.977 277.892 238.711 277.025C239.344 276.308 239.911 275.517 240.411 274.65C240.927 273.767 241.369 272.892 241.736 272.025C242.119 271.142 242.377 270.35 242.511 269.65H233.611L234.561 267.4C234.777 267.4 235.144 267.4 235.661 267.4C236.194 267.4 236.794 267.4 237.461 267.4C238.144 267.4 238.811 267.4 239.461 267.4C240.127 267.4 240.702 267.4 241.186 267.4C241.686 267.4 242.019 267.4 242.186 267.4C242.536 267.4 242.877 267.383 243.211 267.35C243.544 267.3 243.827 267.233 244.061 267.15L246.111 268.4ZM237.836 264.55C237.586 264.917 237.336 265.317 237.086 265.75C236.852 266.183 236.669 266.525 236.536 266.775C236.019 267.725 235.361 268.733 234.561 269.8C233.777 270.867 232.869 271.917 231.836 272.95C230.802 273.967 229.644 274.908 228.361 275.775L226.161 274.125C227.244 273.475 228.211 272.783 229.061 272.05C229.911 271.317 230.644 270.583 231.261 269.85C231.894 269.1 232.436 268.383 232.886 267.7C233.336 267.017 233.711 266.4 234.011 265.85C234.161 265.6 234.327 265.258 234.511 264.825C234.694 264.375 234.836 263.967 234.936 263.6L237.836 264.55ZM63 301.85C63.5 301.85 63.95 301.967 64.35 302.2C64.75 302.433 65.0667 302.75 65.3 303.15C65.5333 303.55 65.65 304 65.65 304.5C65.65 304.983 65.5333 305.433 65.3 305.85C65.0667 306.25 64.75 306.567 64.35 306.8C63.95 307.033 63.5 307.15 63 307.15C62.5167 307.15 62.0667 307.033 61.65 306.8C61.25 306.567 60.9333 306.25 60.7 305.85C60.4667 305.433 60.35 304.983 60.35 304.5C60.35 304 60.4667 303.55 60.7 303.15C60.9333 302.75 61.25 302.433 61.65 302.2C62.0667 301.967 62.5167 301.85 63 301.85ZM93.85 296.95C93.85 297.567 93.85 298.225 93.85 298.925C93.85 299.608 93.85 300.283 93.85 300.95C93.85 301.617 93.85 302.217 93.85 302.75C93.85 303.567 93.8667 304.375 93.9 305.175C93.9333 305.975 93.9667 306.75 94 307.5C94.05 308.233 94.0917 308.933 94.125 309.6C94.1583 310.25 94.175 310.842 94.175 311.375C94.175 312.425 93.8167 313.258 93.1 313.875C92.4 314.492 91.3167 314.8 89.85 314.8C88.9167 314.8 88.0667 314.658 87.3 314.375C86.55 314.108 85.95 313.708 85.5 313.175C85.0667 312.625 84.85 311.933 84.85 311.1C84.85 310.433 85.025 309.825 85.375 309.275C85.725 308.725 86.2667 308.283 87 307.95C87.7333 307.617 88.6583 307.45 89.775 307.45C90.9417 307.45 92.0167 307.575 93 307.825C93.9833 308.075 94.8667 308.408 95.65 308.825C96.4333 309.225 97.125 309.65 97.725 310.1C98.3417 310.55 98.8667 310.958 99.3 311.325L97.975 313.5C97.175 312.683 96.3167 311.967 95.4 311.35C94.5 310.717 93.5667 310.217 92.6 309.85C91.6333 309.483 90.6667 309.3 89.7 309.3C88.9 309.3 88.2583 309.45 87.775 309.75C87.3083 310.05 87.075 310.45 87.075 310.95C87.075 311.5 87.3 311.917 87.75 312.2C88.2 312.467 88.8083 312.6 89.575 312.6C90.1583 312.6 90.6083 312.508 90.925 312.325C91.2583 312.142 91.4917 311.892 91.625 311.575C91.7583 311.242 91.825 310.867 91.825 310.45C91.825 310.067 91.8083 309.583 91.775 309C91.7583 308.417 91.725 307.775 91.675 307.075C91.6417 306.358 91.6167 305.642 91.6 304.925C91.5833 304.192 91.575 303.5 91.575 302.85C91.575 302.217 91.575 301.525 91.575 300.775C91.575 300.008 91.575 299.283 91.575 298.6C91.575 297.917 91.575 297.367 91.575 296.95H93.85ZM85.675 301.625C87.2083 301.742 88.7167 301.8 90.2 301.8C91.7 301.783 93.1333 301.725 94.5 301.625C95.8833 301.525 97.1583 301.408 98.325 301.275V303.55C97.2417 303.667 96.0083 303.767 94.625 303.85C93.2417 303.933 91.7917 303.983 90.275 304C88.7583 304.017 87.2333 303.992 85.7 303.925L85.675 301.625ZM86.075 295.8C87.125 295.883 88.1833 295.933 89.25 295.95C90.3333 295.967 91.3833 295.958 92.4 295.925C93.4167 295.892 94.375 295.833 95.275 295.75C96.1917 295.667 97.025 295.567 97.775 295.45V297.675C97.0417 297.742 96.2167 297.808 95.3 297.875C94.4 297.942 93.4417 298 92.425 298.05C91.4083 298.083 90.3583 298.1 89.275 298.1C88.2083 298.1 87.1417 298.075 86.075 298.025V295.8ZM82.15 294.875C82.1 295.025 82.0333 295.225 81.95 295.475C81.8833 295.725 81.825 295.975 81.775 296.225C81.725 296.458 81.6833 296.65 81.65 296.8C81.5667 297.217 81.4667 297.733 81.35 298.35C81.25 298.967 81.15 299.642 81.05 300.375C80.95 301.108 80.85 301.858 80.75 302.625C80.6667 303.375 80.5917 304.1 80.525 304.8C80.475 305.5 80.45 306.117 80.45 306.65C80.45 307.083 80.4667 307.533 80.5 308C80.5333 308.45 80.5833 308.908 80.65 309.375C80.7667 309.025 80.9 308.658 81.05 308.275C81.2 307.892 81.3583 307.517 81.525 307.15C81.6917 306.767 81.8333 306.417 81.95 306.1L83.2 307.125C82.9833 307.742 82.75 308.417 82.5 309.15C82.2667 309.867 82.05 310.55 81.85 311.2C81.65 311.85 81.5083 312.392 81.425 312.825C81.3917 312.992 81.3583 313.192 81.325 313.425C81.2917 313.642 81.2833 313.825 81.3 313.975C81.3 314.092 81.3 314.233 81.3 314.4C81.3167 314.583 81.3333 314.75 81.35 314.9L79.1 315.075C78.8333 314.192 78.6 313.075 78.4 311.725C78.2167 310.358 78.125 308.825 78.125 307.125C78.125 306.192 78.1667 305.225 78.25 304.225C78.3333 303.225 78.4333 302.25 78.55 301.3C78.6667 300.333 78.7833 299.458 78.9 298.675C79.0167 297.875 79.1167 297.217 79.2 296.7C79.2333 296.4 79.2667 296.067 79.3 295.7C79.35 295.317 79.3833 294.967 79.4 294.65L82.15 294.875ZM111.7 294.4C111.65 294.65 111.592 294.933 111.525 295.25C111.458 295.567 111.4 295.858 111.35 296.125C111.283 296.458 111.2 296.875 111.1 297.375C111.017 297.858 110.925 298.367 110.825 298.9C110.725 299.417 110.617 299.917 110.5 300.4C110.333 301.1 110.125 301.908 109.875 302.825C109.625 303.742 109.333 304.725 109 305.775C108.683 306.808 108.317 307.867 107.9 308.95C107.5 310.017 107.058 311.067 106.575 312.1C106.108 313.117 105.6 314.067 105.05 314.95L102.475 313.925C103.058 313.142 103.6 312.275 104.1 311.325C104.6 310.358 105.058 309.367 105.475 308.35C105.892 307.317 106.267 306.3 106.6 305.3C106.933 304.3 107.217 303.375 107.45 302.525C107.7 301.658 107.892 300.917 108.025 300.3C108.258 299.233 108.442 298.167 108.575 297.1C108.725 296.033 108.792 295.033 108.775 294.1L111.7 294.4ZM120.325 296.925C120.708 297.442 121.117 298.092 121.55 298.875C121.983 299.658 122.408 300.492 122.825 301.375C123.258 302.258 123.642 303.108 123.975 303.925C124.325 304.742 124.6 305.442 124.8 306.025L122.325 307.175C122.158 306.508 121.917 305.758 121.6 304.925C121.3 304.075 120.95 303.217 120.55 302.35C120.167 301.483 119.75 300.667 119.3 299.9C118.867 299.117 118.433 298.458 118 297.925L120.325 296.925ZM102.2 299.725C102.617 299.742 103.017 299.75 103.4 299.75C103.8 299.75 104.208 299.742 104.625 299.725C105.025 299.708 105.517 299.683 106.1 299.65C106.683 299.6 107.308 299.55 107.975 299.5C108.658 299.433 109.333 299.375 110 299.325C110.683 299.258 111.308 299.208 111.875 299.175C112.442 299.142 112.9 299.125 113.25 299.125C114.067 299.125 114.792 299.258 115.425 299.525C116.058 299.775 116.558 300.225 116.925 300.875C117.308 301.525 117.5 302.433 117.5 303.6C117.5 304.583 117.458 305.65 117.375 306.8C117.292 307.933 117.142 309.025 116.925 310.075C116.725 311.108 116.442 311.975 116.075 312.675C115.675 313.542 115.15 314.117 114.5 314.4C113.867 314.7 113.108 314.85 112.225 314.85C111.758 314.85 111.25 314.817 110.7 314.75C110.15 314.683 109.667 314.6 109.25 314.5L108.85 311.9C109.183 311.983 109.542 312.067 109.925 312.15C110.325 312.233 110.7 312.3 111.05 312.35C111.4 312.383 111.683 312.4 111.9 312.4C112.35 312.4 112.742 312.325 113.075 312.175C113.425 312.008 113.717 311.683 113.95 311.2C114.2 310.683 114.408 310.017 114.575 309.2C114.742 308.383 114.867 307.508 114.95 306.575C115.033 305.642 115.075 304.742 115.075 303.875C115.075 303.142 114.967 302.6 114.75 302.25C114.55 301.9 114.258 301.667 113.875 301.55C113.492 301.417 113.042 301.35 112.525 301.35C112.125 301.35 111.575 301.383 110.875 301.45C110.192 301.5 109.458 301.567 108.675 301.65C107.892 301.733 107.167 301.817 106.5 301.9C105.833 301.967 105.308 302.025 104.925 302.075C104.608 302.108 104.2 302.158 103.7 302.225C103.217 302.292 102.8 302.358 102.45 302.425L102.2 299.725ZM139.9 296.9C139.733 298.183 139.517 299.542 139.25 300.975C139 302.392 138.658 303.8 138.225 305.2C137.725 306.9 137.158 308.342 136.525 309.525C135.908 310.692 135.233 311.583 134.5 312.2C133.767 312.817 132.992 313.125 132.175 313.125C131.342 313.125 130.567 312.842 129.85 312.275C129.133 311.692 128.55 310.883 128.1 309.85C127.65 308.8 127.425 307.583 127.425 306.2C127.425 304.8 127.708 303.475 128.275 302.225C128.858 300.975 129.658 299.867 130.675 298.9C131.692 297.933 132.875 297.175 134.225 296.625C135.575 296.075 137.033 295.8 138.6 295.8C140.1 295.8 141.45 296.042 142.65 296.525C143.867 297.008 144.9 297.683 145.75 298.55C146.617 299.4 147.275 300.4 147.725 301.55C148.175 302.7 148.4 303.925 148.4 305.225C148.4 306.975 148.033 308.533 147.3 309.9C146.583 311.25 145.525 312.358 144.125 313.225C142.725 314.075 141.008 314.65 138.975 314.95L137.5 312.6C137.933 312.55 138.333 312.5 138.7 312.45C139.067 312.383 139.408 312.317 139.725 312.25C140.525 312.067 141.283 311.783 142 311.4C142.733 311.017 143.383 310.533 143.95 309.95C144.517 309.35 144.958 308.65 145.275 307.85C145.608 307.05 145.775 306.15 145.775 305.15C145.775 304.15 145.617 303.225 145.3 302.375C144.983 301.508 144.517 300.758 143.9 300.125C143.283 299.492 142.525 299 141.625 298.65C140.725 298.283 139.708 298.1 138.575 298.1C137.208 298.1 135.992 298.342 134.925 298.825C133.858 299.308 132.95 299.95 132.2 300.75C131.467 301.533 130.908 302.383 130.525 303.3C130.142 304.217 129.95 305.1 129.95 305.95C129.95 306.9 130.067 307.692 130.3 308.325C130.533 308.942 130.825 309.4 131.175 309.7C131.525 310 131.883 310.15 132.25 310.15C132.617 310.15 132.992 309.967 133.375 309.6C133.758 309.217 134.142 308.617 134.525 307.8C134.925 306.983 135.317 305.942 135.7 304.675C136.083 303.475 136.4 302.2 136.65 300.85C136.917 299.483 137.108 298.15 137.225 296.85L139.9 296.9ZM172.325 297.375C172.242 297.575 172.158 297.808 172.075 298.075C172.008 298.325 171.942 298.575 171.875 298.825C171.742 299.458 171.567 300.167 171.35 300.95C171.133 301.733 170.867 302.542 170.55 303.375C170.25 304.208 169.9 305.025 169.5 305.825C169.1 306.608 168.65 307.333 168.15 308C167.383 308.983 166.517 309.9 165.55 310.75C164.6 311.6 163.517 312.367 162.3 313.05C161.083 313.717 159.717 314.292 158.2 314.775L156.05 312.425C157.7 312.025 159.125 311.533 160.325 310.95C161.525 310.35 162.567 309.675 163.45 308.925C164.35 308.158 165.142 307.342 165.825 306.475C166.408 305.742 166.908 304.925 167.325 304.025C167.742 303.125 168.092 302.225 168.375 301.325C168.658 300.408 168.85 299.567 168.95 298.8C168.717 298.8 168.283 298.8 167.65 298.8C167.033 298.8 166.308 298.8 165.475 298.8C164.642 298.8 163.767 298.8 162.85 298.8C161.95 298.8 161.075 298.8 160.225 298.8C159.392 298.8 158.658 298.8 158.025 298.8C157.392 298.8 156.942 298.8 156.675 298.8C156.142 298.8 155.633 298.808 155.15 298.825C154.683 298.842 154.292 298.867 153.975 298.9V296.1C154.208 296.133 154.483 296.167 154.8 296.2C155.117 296.217 155.442 296.242 155.775 296.275C156.108 296.292 156.408 296.3 156.675 296.3C156.908 296.3 157.275 296.3 157.775 296.3C158.292 296.3 158.883 296.3 159.55 296.3C160.233 296.3 160.958 296.3 161.725 296.3C162.492 296.3 163.25 296.3 164 296.3C164.767 296.3 165.475 296.3 166.125 296.3C166.792 296.3 167.358 296.3 167.825 296.3C168.292 296.3 168.617 296.3 168.8 296.3C169.017 296.3 169.267 296.292 169.55 296.275C169.85 296.242 170.133 296.192 170.4 296.125L172.325 297.375ZM187.825 299.4C187.942 299.65 188.092 300.025 188.275 300.525C188.458 301.008 188.65 301.533 188.85 302.1C189.067 302.65 189.258 303.175 189.425 303.675C189.608 304.175 189.742 304.558 189.825 304.825L187.475 305.675C187.408 305.375 187.292 304.983 187.125 304.5C186.958 304 186.775 303.483 186.575 302.95C186.375 302.4 186.175 301.875 185.975 301.375C185.792 300.875 185.625 300.475 185.475 300.175L187.825 299.4ZM196.95 301C196.833 301.317 196.733 301.592 196.65 301.825C196.583 302.058 196.525 302.275 196.475 302.475C196.142 303.808 195.692 305.117 195.125 306.4C194.575 307.683 193.858 308.892 192.975 310.025C191.825 311.492 190.517 312.733 189.05 313.75C187.6 314.75 186.167 315.525 184.75 316.075L182.675 313.95C183.608 313.683 184.575 313.3 185.575 312.8C186.575 312.3 187.533 311.7 188.45 311C189.383 310.3 190.192 309.525 190.875 308.675C191.442 307.958 191.958 307.142 192.425 306.225C192.892 305.292 193.275 304.308 193.575 303.275C193.875 302.225 194.083 301.175 194.2 300.125L196.95 301ZM182 300.7C182.15 300.983 182.325 301.375 182.525 301.875C182.742 302.358 182.958 302.883 183.175 303.45C183.408 304.017 183.625 304.558 183.825 305.075C184.025 305.592 184.183 306.025 184.3 306.375L181.925 307.25C181.825 306.933 181.675 306.508 181.475 305.975C181.275 305.425 181.058 304.858 180.825 304.275C180.608 303.692 180.392 303.158 180.175 302.675C179.975 302.175 179.8 301.8 179.65 301.55L182 300.7ZM222.6 298.4C222.467 298.6 222.342 298.842 222.225 299.125C222.108 299.408 222 299.675 221.9 299.925C221.683 300.725 221.375 301.608 220.975 302.575C220.575 303.542 220.083 304.533 219.5 305.55C218.917 306.55 218.25 307.508 217.5 308.425C216.35 309.842 214.975 311.125 213.375 312.275C211.792 313.425 209.833 314.45 207.5 315.35L205.175 313.275C206.792 312.792 208.208 312.233 209.425 311.6C210.658 310.95 211.742 310.242 212.675 309.475C213.625 308.708 214.467 307.892 215.2 307.025C215.833 306.308 216.4 305.517 216.9 304.65C217.417 303.767 217.858 302.892 218.225 302.025C218.608 301.142 218.867 300.35 219 299.65H210.1L211.05 297.4C211.267 297.4 211.633 297.4 212.15 297.4C212.683 297.4 213.283 297.4 213.95 297.4C214.633 297.4 215.3 297.4 215.95 297.4C216.617 297.4 217.192 297.4 217.675 297.4C218.175 297.4 218.508 297.4 218.675 297.4C219.025 297.4 219.367 297.383 219.7 297.35C220.033 297.3 220.317 297.233 220.55 297.15L222.6 298.4ZM214.325 294.55C214.075 294.917 213.825 295.317 213.575 295.75C213.342 296.183 213.158 296.525 213.025 296.775C212.508 297.725 211.85 298.733 211.05 299.8C210.267 300.867 209.358 301.917 208.325 302.95C207.292 303.967 206.133 304.908 204.85 305.775L202.65 304.125C203.733 303.475 204.7 302.783 205.55 302.05C206.4 301.317 207.133 300.583 207.75 299.85C208.383 299.1 208.925 298.383 209.375 297.7C209.825 297.017 210.2 296.4 210.5 295.85C210.65 295.6 210.817 295.258 211 294.825C211.183 294.375 211.325 293.967 211.425 293.6L214.325 294.55Z" fill="white"/>
<path d="M150 361L164.434 336L135.566 336L150 361ZM150 336L147.5 336L147.5 338.5L150 338.5L152.5 338.5L152.5 336L150 336Z" fill="#FFDFE5"/>
<rect x="26" y="362" width="248" height="48" rx="22" fill="#C01542" fill-opacity="0.88"/>
<rect x="26" y="362" width="248" height="48" rx="22" stroke="#FFDFE5" stroke-width="2"/>
<path d="M140.675 387.775C140.675 389.808 140.058 391.417 138.825 392.6C137.608 393.783 135.9 394.375 133.7 394.375C132.633 394.375 131.692 394.242 130.875 393.975C130.075 393.708 129.275 393.3 128.475 392.75L130.025 390.225C130.625 390.625 131.183 390.908 131.7 391.075C132.217 391.242 132.808 391.325 133.475 391.325C134.392 391.325 135.133 391.033 135.7 390.45C136.283 389.85 136.575 388.967 136.575 387.8V379.675H131.275V376.675H140.675V387.775ZM156.69 388.925C156.69 390.008 156.407 390.967 155.84 391.8C155.274 392.633 154.457 393.283 153.39 393.75C152.34 394.2 151.09 394.425 149.64 394.425C146.774 394.425 144.49 393.592 142.79 391.925L144.865 389.625C146.182 390.792 147.74 391.375 149.54 391.375C150.407 391.375 151.099 391.192 151.615 390.825C152.149 390.442 152.415 389.917 152.415 389.25C152.415 388.617 152.19 388.125 151.74 387.775C151.307 387.408 150.49 387.042 149.29 386.675C147.257 386.058 145.815 385.333 144.965 384.5C144.115 383.667 143.69 382.592 143.69 381.275C143.69 380.242 143.974 379.342 144.54 378.575C145.124 377.808 145.907 377.225 146.89 376.825C147.89 376.425 148.999 376.225 150.215 376.225C152.765 376.225 154.832 376.975 156.415 378.475L154.49 380.7C153.907 380.217 153.274 379.858 152.59 379.625C151.924 379.375 151.232 379.25 150.515 379.25C149.715 379.25 149.082 379.4 148.615 379.7C148.165 379.983 147.94 380.4 147.94 380.95C147.94 381.317 148.04 381.625 148.24 381.875C148.457 382.125 148.807 382.358 149.29 382.575C149.774 382.792 150.499 383.05 151.465 383.35C153.232 383.883 154.54 384.575 155.39 385.425C156.257 386.258 156.69 387.425 156.69 388.925ZM162.38 376.675L164.98 382.225L167.655 376.675H171.98L167.38 384.625L172.405 394H167.98L164.93 387.4L161.93 394H157.58L162.48 384.8L157.955 376.675H162.38Z" fill="white"/>
</svg>
